/* XPM */
static char * advert_xpm[] = {
"56 55 13 1",
" 	c None",
".	c #000000",
"+	c #313131",
"@	c #636363",
"#	c #848484",
"$	c #9C6331",
"%	c #9C6363",
"&	c #9C9C9C",
"*	c #CE9C9C",
"=	c #FFCE00",
"-	c #FFCECE",
";	c #FFFF31",
">	c #FFFFFF",
"                                                        ",
"                                                        ",
"                                                        ",
"                                                        ",
"                          ...                           ",
"                         .;;;.                          ",
"                         .;;==.                         ",
"                         .;=$$$.                        ",
"                          .=$$$.                        ",
"                           .$$$.                        ",
"                            ...                         ",
"                                                        ",
"                          ........                      ",
"                        ..>-+++&-*...                   ",
"                      ..>-@.@@------*.    -             ",
"                     .>--@&&---------*. - *             ",
"                    .>----------------*.*%              ",
"                   .>%-----------------.%               ",
"                  .>%*%-->%------------*.               ",
"                  .>%--->%*%-----------*.               ",
"                  .>------*%*---------**.               ",
"                 .>%*------**---------*%.               ",
"                 .>----%*-------------*%.               ",
"                 .>------------------**%.               ",
"                ..***----------------*%.                ",
"               .>>--*%---------------*%.                ",
"               .-%---*%-------------**%.                ",
"               .->-%-*%------------**%.                 ",
"                .----*%-----------**%.                  ",
"                 .-**%----------***%..                  ",
"                  ....-------****%%.*.                  ",
"                     .....****%%...-*.                  ",
"                     .-*. ......   ..                   ",
"                      ..  .-*.                          ",
"                          .-*.                          ",
"                           ..                           ",
"                                                        ",
"                                                        ",
"                                                        ",
"                                                        ",
"                                                        ",
"                                                        ",
"      >        >                   >      >             ",
"      >        >                >                       ",
"     > >       >                >                       ",
"     > >    >>>> >   >  >>>  >> >> >  >>  > > >>   >>>> ",
"    >   >  >   > >   > >   > >  >  > >  > > >>  > >   > ",
"    >   >  >   >  > >  >>>>> >  >  >  >   > >   > >   > ",
"    >>>>>  >   >  > >  >     >  >  >   >  > >   > >   > ",
"   >     > >   >   >   >   > >  >  > >  > > >   > >   > ",
"   >     >  >>>>   >    >>>  >   > >  >>  > >   >  >>>> ",
"                                                      > ",
"                                                  >>>>  ",
"                                                        ",
"                                                        "};
