/* XPM */
static char * analysis_xpm[] =  {
"52 49 14 1",
" 	c None",
".	c #000000",
"+	c #000063",
"@	c #00009C",
"#	c #003100",
"$	c #0063CE",
"%	c #310000",
"&	c #319CFF",
"*	c #636363",
"-	c #9C9C9C",
";	c #9CCEFF",
">	c #CECECE",
",	c #FFFFFF",
"                                                    ",
"                                                    ",
"                         ................           ",
"                         .>,,,>,,,>,,,>>.           ",
"                         .,>>>>>>>>>>>>-.           ",
"                 > - --  .,>-..>>>>>>>>>.           ",
"                  ,,,>.  .,>.  .>.....>-.           ",
"            .$+  - - -.  .>>.->.>->,,,>>.           ",
"            +&;.. ,>  ....,>-..->>>>>>>-.           ",
"            $;&;$-,>--.$&.,>>>>>>>>>>>>>.           ",
"            .+;&; ,>  .&;.,>-..->>>>>>>-.           ",
"            .$;;.-,>--..&.>>.- .>.....>>.           ",
"         $@$+&;., ,>  .,..,>. >.> ,>,>>-.           ",
"         @&;&;&;.-,> -..&.,>-..>>>>>>>>>.           ",
"         .$+$+;&;......&;.,>>>>>>>>>>>>-.           ",
"         .+$+%$;&;&;&;&;&.>>->->->->->->.           ",
"         .@$.&;&..@&;$..;................           ",
"         -..$@&.$@$;&..$+;$- - -.,,...              ",
"         --.+&.$@$+&;.+&;.. ,>  ...&;.              ",
"          --$&.@..$@$.$;&;$-,> -.$&;&.              ",
"           -$&..- @$+..+;&; ,>- .&;&+.              ",
"             ..->>.$+%.$;;.-,>--..&;$.              ",
"            > --  .$@$+&;., ,>  .,.&;...            ",
"             >-    @&;&;&;.-,> -..&;&;&;.           ",
"                  -.$+$+;&;......&;&.$@$.           ",
"                  -.+$+%$;&;&;&;&;&$.@$@.           ",
"                  -.+$.&;&..+&;$..;&;.+$.           ",
"                  --..$@&.$@$;&.$@$;$...-           ",
"                   --.@&.$@$+&;.+$@$+.. >           ",
"                    --$&.@..$@$...$@$.->            ",
"                     -$&..- @$+.- .$@.>             ",
"                       ..-->.$+%>> ..-              ",
"                      > --  ..#.  > --              ",
"                       >>   ----   >>               ",
"                                                    ",
"                                                    ",
"         ,                ,           ,             ",
"         ,                ,                         ",
"        , ,               ,                         ",
"        , ,   , ,,   ,,,  , ,  ,  ,,  ,  ,,         ",
"       ,   ,  ,,  ,     , , ,  , ,  , , ,  ,        ",
"       ,   ,  ,   ,  ,,,, , ,  ,  ,   ,  ,          ",
"       ,,,,,  ,   , ,   , , ,  ,   ,  ,   ,         ",
"      ,     , ,   , ,   , ,  ,,  ,  , , ,  ,        ",
"      ,     , ,   ,  ,,,, ,  ,    ,,  ,  ,,         ",
"                             ,                      ",
"                           ,,                       ",
"                                                    ",
"                                                    ",
"                                                    "};
