/* XPM */
static char *buttonHelpOn[] = {
/* width height num_colors chars_per_pixel */
"    48    45      140            2",
/* colors */
".. c #000010",
".# c #000018",
".a c #080008",
".b c #080010",
".c c #100010",
".d c #100021",
".e c #100029",
".f c #100031",
".g c #10004a",
".h c #180018",
".i c #180029",
".j c #180031",
".k c #180042",
".l c #18004a",
".m c #210029",
".n c #210031",
".o c #210039",
".p c #210042",
".q c #290031",
".r c #290039",
".s c #290042",
".t c #290052",
".u c #290063",
".v c #290084",
".w c #310039",
".x c #310042",
".y c #31004a",
".z c #310052",
".A c #31005a",
".B c #3100ad",
".C c #390052",
".D c #39005a",
".E c #390063",
".F c #39006b",
".G c #39007b",
".H c #3900a5",
".I c #420063",
".J c #42006b",
".K c #420073",
".L c #42007b",
".M c #420084",
".N c #42008c",
".O c #420094",
".P c #4200c6",
".Q c #4a006b",
".R c #4a007b",
".S c #4a0084",
".T c #4a009c",
".U c #4a00a5",
".V c #4a00ff",
".W c #520073",
".X c #520084",
".Y c #52008c",
".Z c #520094",
".0 c #52009c",
".1 c #5200a5",
".2 c #5200ad",
".3 c #5200bd",
".4 c #5a006b",
".5 c #5a008c",
".6 c #5a009c",
".7 c #5a00a5",
".8 c #5a00bd",
".9 c #5a00f7",
"#. c #63008c",
"## c #630094",
"#a c #63009c",
"#b c #6300a5",
"#c c #6300b5",
"#d c #6300de",
"#e c #6300ff",
"#f c #6b0094",
"#g c #6b009c",
"#h c #6b00a5",
"#i c #6b00ad",
"#j c #6b00bd",
"#k c #6b00d6",
"#l c #6b00e7",
"#m c #7300a5",
"#n c #7300ad",
"#o c #7300b5",
"#p c #7300c6",
"#q c #7300de",
"#r c #7300e7",
"#s c #7b00a5",
"#t c #7b00bd",
"#u c #7b00c6",
"#v c #7b00ce",
"#w c #7b00d6",
"#x c #7b00e7",
"#y c #7b00f7",
"#z c #7b00ff",
"#A c #8400b5",
"#B c #8400c6",
"#C c #8400ce",
"#D c #8400d6",
"#E c #8400de",
"#F c #8400ff",
"#G c #8c00bd",
"#H c #8c00c6",
"#I c #8c00de",
"#J c #8c00e7",
"#K c #8c00ff",
"#L c #9400de",
"#M c #9400e7",
"#N c #9400ef",
"#O c #9400ff",
"#P c #9c00c6",
"#Q c #9c00ce",
"#R c #9c00ef",
"#S c #9c00ff",
"#T c #a500ce",
"#U c #a500de",
"#V c #a500f7",
"#W c #a500ff",
"#X c #ad00ce",
"#Y c #ad00de",
"#Z c #ad00e7",
"#0 c #ad00f7",
"#1 c #b500ef",
"#2 c #b500f7",
"#3 c #b500ff",
"#4 c #bd00e7",
"#5 c #bd00f7",
"#6 c #bd00ff",
"#7 c #c600de",
"#8 c #c600ff",
"#9 c #ce00de",
"a. c #ce00e7",
"a# c #ce00f7",
"aa c #d600ef",
"ab c #d600ff",
"ac c #de00e7",
"ad c #de00ef",
"ae c #de00ff",
"af c #e700f7",
"ag c #e700ff",
"ah c #ef00ff",
"ai c #f700f7",
"aj c #ff00ff",
/* pixels */
".s.s.r.o.j.j.j.j.q.r.q.r.q.r.q.o.j.j.n.q.q.r.r.r.r.r.r.r.p.r.p.y.y.s.r.i.d.d.d.j.q.r.r.p.r.r.r.r",
".p.s.r.o.j.j.j.n.j.q.q.q.o.q.o.j.n.n.q.o.r.o.q.r.q.r.r.o.p.p.s.s.y.s.o.d.d.d.d.n.o.o.r.r.r.o.o.r",
".p.p.q.j.o.j.j.n.n.j.n.j.j.j.i.n.q.o.o.q.r.o.j.j.j.q.o.o.r.s.s.s.s.q.j.d.d.i.i.j.q.o.o.o.o.o.o.o",
".p.o.o.j.j.n.n.j.n.n.n.m.i.i.d.i.j.o.o.z.5#i#u#t#o#o#g.J.y.r.s.s.q.r.j.i.h.i.n.q.o.o.q.r.o.o.o.q",
".o.j.o.j.n.j.n.n.j.n.n.i.i.i.d.e.e.o.6#M#6#6#3#3#3#3#8af#Y.W.q.q.s.q.n.m.j.n.n.q.q.o.o.r.o.q.r.q",
".o.o.j.n.j.n.n.j.n.j.i.i.d.d.e.g.v#d#y#W#W#W#3#3#3#W#8aeajajac#..x.q.j.j.m.j.q.o.o.q.o.r.r.q.r.q",
".o.o.j.n.q.o.j.n.j.j.i.i.d.o.B.V.9#r#K#W#3#3#3#3#3#3#6#6afajajajai.D.d.j.i.j.j.i.j.j.q.o.q.q.q.q",
".o.o.j.q.o.j.j.j.n.j.j.j.p#l#F#z#F#W#W#W#3#3#V#R#R#3#3#3#Wabajajah#5.z.d.j.i.j.d.d.d.d.i.q.j.n.q",
".r.o.o.o.j.q.o.j.q.o.q.Y#0#W#8#6#O#3#R.R.d.b.a.a.a.d.i.D#t#3#3#8ae#8#S.Y.e.d.j.d.d.d.c.h.i.i.i.n",
".o.o.o.o.o.o.o.o.o.r.Aafagaeajag#8#o.a.a.a.a.a.a.a.b.b.a.a.y#q#O#6#8#O#F.t.e.d.e.b.d.d.c.d.h.i.m",
".r.r.o.r.o.o.r.r.p.A#5ajajahaj#U.b.a.a.a.a.F#t#L#I#w.6.a.a.a.a.A#W#W#K#K#z.t.b.d.b.d.c.d.c.i.i.m",
".p.r.r.o.o.p.p.y.y#4ajajajahah.b.a.a.a.d#6#W#W#W#3#W#W#N.i.a.a.a.N#K#F#S#z.3.b.b.d.b.d.c.d.i.m.i",
".s.r.r.o.o.p.t.y.Zajajajaj#U.b.a.a.a.y#6#3#W#S#S#3#8#8#3#3.b.a.a.a.L#z#F#k.N.j...b.d.b.d.c.d.i.i",
".s.p.r.r.k.p.z.t#4ajajajaj.b.a.a.a.aaaae#8#W#W#w#Jaeaeaeah#Z.a.a.a.a#k#x.U.G.G.b.a.b.d.b.d.d.d.d",
".s.s.p.r.o.p.z.Kajajajaj#Q.a.a.a.a.aabafae#8.o.a.a.M#8abagaj.d.a.a.a.i#E#c.2.2.o...d.b.d.b.d.d.d",
".y.s.s.r.o.p.t#Cajajajaj.b.a.a.a.a.a#1aga#.d.a.a.a.a#cabagag.E.a.a.a.a.F#c.8.8.6.b.b.b.d.b.d.b.d",
".x.x.s.r.o.p.Jadajajaj#X.a.a.a.a.a.a.d.Y.b.a.a.a.a.a#jabaf#8.A.a.a.a.a.d#c#c#c#j.b.b.d.b.d.b.d.b",
".y.y.y.s.r.r#bajajajaj.x.a.a.a.a.a.a.a.a.a.a.a.a.a.Mabab#8#3.d.a.a.a.a.a.7#j#j#c.d.b.b.d.b.d.b.d",
".y.y.y.s.p.s#Tajajajaj.b.a.a.a.a.a.a.a.a.a.a.a.M#Iaeab#8#6#v.a.a.a.a.a.a.Y#j#c#i.i.b.c.d.c.d.b.c",
".C.y.y.y.s.s#9ajajajaj.a.a.a.a.a.a.a.a.a.a.a#1ab#8#8#8#6#0.a.a.a.a.a.a.a.L#j#i#i.o.a.d.b.d.c.d.b",
".y.x.y.y.y.y#7ajajajab.a.a.a.a.a.a.a.a.a.a.a#8#8#6#6#3#c.b.a.a.a.a.a.a.a.K#c#c#i.o.a.b.d.c.d.b.c",
".y.y.y.x.y.y#7ahafab#8.b.a.a.a.a.a.a.a.a.a.a#1#W#S#E.i.a.a.a.a.a.a.a.a.a.L#i#c#i.o.a.d.d.c.c.d.b",
".y.x.y.y.y.x#Hag#8#8ab.b.a.a.a.a.a.a.a.a.a.a#3#W#K.O.a.a.a.a.a.a.a.a.a.a.Y#c#i#i.i.b.b.d.d.c.b.b",
".x.y.y.x.y.x#.ajae#8#8.n.a.a.a.a.a.a.a.a.a.a.R#W#q.d.a.a.a.a.a.a.a.a.a.a.Z#c#i#j.d.b.d.h.d.c.c.b",
".x.y.x.y.x.s.Dacae#6#8#g.a.a.a.a.a.a.a.a.a.a.a.a.a.a.a.a.a.a.a.a.a.a.a.a.0#o#i#i.b.c.d.d.d.c.b.b",
".x.y.x.y.x.x.s#Gajahajaf.a.a.a.a.a.a.a.a.a.a.a.a.a.a.a.a.a.a.a.a.a.a.a.o#b#o#u#C.b.b.i.d.c.d.d.b",
".x.x.x.s.x.s.s.Dajajajaj#A.a.a.a.a.a.a.a.a.a.A#I#o.a.a.a.a.a.a.a.a.a.a.Z#o#u#I.I.b.c.d.h.d.d.c.b",
".x.s.s.s.x.s.s.q#Tajajajah.a.a.a.a.a.a.a.a.a#3#W#W##.a.a.a.a.a.a.a.a.z.5#p#I#I.c.b.d.h.i.h.d.d..",
".s.s.s.q.s.s.q.s.Qajajajaj#A.a.a.a.a.a.a.a.a#3#3#3#n.a.a.a.a.a.a.a.d.6#b#n#E.D.b.b.h.d.i.d.d.d.d",
".q.q.q.r.q.q.o.n.qa.ajajajah#U.a.a.a.a.a.a.a.E#I#B.a.a.a.a.a.a.a.d#a#m#h#t#D.b.b.d.d.i.d.d.d.d.d",
".q.o.j.n.j.i.i.i.i.s#Uafaeae#8#p.b.a.a.a.a.a.a.a.a.a.a.a.a.a.a.q#p#B#G#A#Q.q.a.b.d.h.i.d.d.d.e.e",
".j.j.n.n.i.h.i.d.i.d.j#W#8#W#3#6#6.J.a.a.a.a.a.a.a.a.a.a.a.b#.#1#2#1#2#P.q.a.a.b.d.d.h.d.d.d.d.e",
".j.n.n.j.i.h.d.d.d.d.d.F#R#S#W#6#6#W.Z.d.a.a.a.a.a.a.a.b.y#g#A#6#8#8#4.4.a.a.b.b.c.d.d.d.d.e.d.d",
".n.j.n.m.i.i.i.d.i.d.d.d.p#y#W#O#K#x.7.6.6.M.S.X.X.5#g#g#h#g#A#6#6#1.s.a.a.b.a.a.a.b.d.d.d.b.d.d",
".j.n.n.n.i.i.i.i.d.d.i.e.e.l#d#e.P.T.T.0.1.Z.6#g#g#g#g#g#g#g#A#1#1.q.a.a.a.a.a.a.a.a.b.c.b.d.d.b",
".q.j.n.n.n.n.j.i.j.j.i.j.e.e.e.k.v.H.O.T.O.5#a#g#g#m#m#m#g#g#s.x.b.a.a.a.a.a.a.a.a.a.a.b.b.d.d.d",
".q.q.o.n.n.n.n.n.n.q.o.j.j.e.e.....e.u.S.Y.5#f#g#g#g#g#g.X.q.a.a.a.a.a.a.a.a.a.a.a.a.a.a.b.d.b.d",
".r.o.n.n.n.n.q.q.q.r.o.j.j.f.e.#...a.a.b.b.d.h.h.i.d.b.b.a.a.a.a.a...b.a.a.a.a.a.a.a.a.a.b.b.d.c",
".r.p.q.q.j.q.q.r.r.q.q.j.j.j.e.#.d.....b.b.a.b.b.a.b.b.b.b.b.b.b.b.b.b.a.a.a.a.a.a.a.a.a.a.b.b.d",
".p.s.s.q.q.q.r.q.r.q.q.o.j.e.e.....b...b.b.c.b.c.b.c.b.b.b.b.b.b.b.a.a.a.a.a.a.a.a.a.a.a.a.b.c.d",
".s.s.s.s.s.q.s.q.q.q.q.j.i.e.........b.b.b.c.c.c.c.c.c.c.c.b.b.b.a...a.a.a.a.a.a.a.a.a.a.a.b.b.b",
".s.p.s.x.s.q.w.q.q.q.q.d.b.d...b.a...b.b.b.b.c.d.c.d.c.d.b.b.b.b...b.a.a.a.a.a.a.a.a.a.a.a.a.b.b",
".p.s.s.x.x.x.w.q.q.q.n.d.b...d.a...b.b.b.c.c.d.c.d.c.d.b.b.b.b.a.a.a.a.a...a.a...a...b.a.a.a.b.a",
".s.s.s.x.x.w.w.q.q.n.h.i.d.d.b.#.b.b.b.c.d.c.d.c.d.b.b.b.d.b.a.........a.....b.b.b.b.b.b.a.a.a.a",
".s.s.x.x.x.x.q.q.n.m.i.m.h.d.d.d.d.c.d.d.c.i.h.d.c.d.c.d.b.b.b.b.b.b.b.b.a.b.b.b.b.b.a.a.a.a.a.a"
};
