/* XPM */
static char *buttonViewOn[] = {
/* width height num_colors chars_per_pixel */
"    52    47      137            2",
/* colors */
".. c #000000",
".# c #080008",
".a c #080010",
".b c #080018",
".c c #100018",
".d c #100021",
".e c #100029",
".f c #100031",
".g c #180021",
".h c #180029",
".i c #180031",
".j c #180039",
".k c #180042",
".l c #210029",
".m c #210031",
".n c #210039",
".o c #210042",
".p c #21004a",
".q c #290031",
".r c #290039",
".s c #290042",
".t c #29004a",
".u c #290052",
".v c #29005a",
".w c #290063",
".x c #310042",
".y c #31004a",
".z c #310052",
".A c #310063",
".B c #390042",
".C c #39004a",
".D c #390052",
".E c #39006b",
".F c #390073",
".G c #39007b",
".H c #390084",
".I c #420052",
".J c #42005a",
".K c #420063",
".L c #42006b",
".M c #42007b",
".N c #420084",
".O c #42008c",
".P c #4200a5",
".Q c #4200ad",
".R c #4a005a",
".S c #4a0063",
".T c #4a006b",
".U c #4a0073",
".V c #4a007b",
".W c #4a0084",
".X c #4a0094",
".Y c #4a00b5",
".Z c #520084",
".0 c #52008c",
".1 c #520094",
".2 c #52009c",
".3 c #5200a5",
".4 c #5a007b",
".5 c #5a00ad",
".6 c #5a00bd",
".7 c #63008c",
".8 c #630094",
".9 c #63009c",
"#. c #6300ad",
"## c #6300c6",
"#a c #6300ce",
"#b c #6b00ad",
"#c c #6b00b5",
"#d c #6b00c6",
"#e c #6b00d6",
"#f c #73009c",
"#g c #7300a5",
"#h c #7300bd",
"#i c #7300c6",
"#j c #7300d6",
"#k c #7b00b5",
"#l c #7b00c6",
"#m c #7b00ce",
"#n c #7b00d6",
"#o c #7b00ff",
"#p c #8400a5",
"#q c #8400b5",
"#r c #8400bd",
"#s c #8400c6",
"#t c #8400ce",
"#u c #8400de",
"#v c #8400e7",
"#w c #8400ef",
"#x c #8400ff",
"#y c #8c00c6",
"#z c #8c00ce",
"#A c #8c00de",
"#B c #8c00ef",
"#C c #8c00f7",
"#D c #8c00ff",
"#E c #9400c6",
"#F c #9400ce",
"#G c #9400de",
"#H c #9400e7",
"#I c #9400f7",
"#J c #9400ff",
"#K c #9c00d6",
"#L c #9c00e7",
"#M c #9c00ef",
"#N c #9c00f7",
"#O c #9c00ff",
"#P c #a500d6",
"#Q c #a500de",
"#R c #a500ef",
"#S c #a500ff",
"#T c #ad00d6",
"#U c #ad00de",
"#V c #ad00e7",
"#W c #ad00ef",
"#X c #ad00f7",
"#Y c #ad00ff",
"#Z c #b500e7",
"#0 c #b500f7",
"#1 c #b500ff",
"#2 c #bd00e7",
"#3 c #bd00ef",
"#4 c #bd00ff",
"#5 c #c600ef",
"#6 c #c600f7",
"#7 c #c600ff",
"#8 c #ce00de",
"#9 c #ce00f7",
"a. c #ce00ff",
"a# c #d600ef",
"aa c #d600f7",
"ab c #de00f7",
"ac c #de00ff",
"ad c #e700f7",
"ae c #e700ff",
"af c #f700ff",
"ag c #ff00ff",
/* pixels */
".h.e.e.e.e.h.m.m.m.h.g.c.a.a.a.c.h.e.e.c.e.c.e.e.g.e.h.r.r.r.r.m.m.m.m.m.m.m.m.m.n.s.s.r.s.n.n.n.n.i.m.m",
".e.e.c.h.e.e.h.g.h.g.c.a.a.a.a.a.c.g.g.g.e.e.c.e.g.m.n.r.x.x.x.r.m.m.m.m.n.n.n.s.s.y.s.s.s.o.n.n.n.n.n.n",
".c.e.e.e.e.g.g.g.e.c.c.c.a.a.a.c.c.e.g.e.g.g.h.g.m.n.x.s.x.x.x.x.n.m.n.m.m.n.n.t.y.y.t.s.o.s.o.o.o.o.o.o",
".e.c.g.e.g.g.h.g.g.g.e.c.e.c.e.g.e.g.e.g.h.m.h.m.s.s.s.x.B.C.y.x.s.m.n.m.n.n.n.s.y.t.t.o.o.o.s.o.o.s.s.s",
".h.h.e.g.g.h.e.g.h.e.g.h.e.c.e.g.c.e.c.h.h.n.r.s.y.y.y.C.C.y.y.s.r.n.m.n.m.n.n.s.s.t.t.o.o.o.o.o.s.p.s.o",
".h.h.h.h.g.h.g.e.g.e.g.h.h.e.g.e.g.g.e.g.m.n.y.D.y.C.C.C.C.y.y.s.s.m.h.m.m.m.m.n.n.p.o.p.o.p.o.s.p.s.p.s",
".h.h.h.h.h.g.h.g.h.g.h.h.e.e.g.g.e.g.g.g.m.n.y.C.C.C.C.C.x.x.s.s.m.h.d.e.e.g.m.n.n.o.o.o.o.p.s.p.s.t.s.o",
".m.m.h.h.h.h.h.e.g.h.h.y.0#h#s#s#q.4.n.h.m.n.r.x.C.C.C.x.q.y.V.E.z.m.e.c.e.e.g.m.n.j.n.o.p.s.p.s.o.t.o.t",
".m.m.m.m.h.h.h.g.h.m.G#B#S#Y#1#1#R#M#u.U.h.m.r.r.r.r.q.y.T#H#4#S#I#z.V.y.h.g.h.m.m.n.j.j.n.o.s.p.s.p.s.s",
".m.m.m.m.h.m.h.h.A#n#D#D#S#1#4ac#4#Y#Y#1#l.x.m.m.m.m.C#K#N#L#L#N#S#H#A#1#L.Z.n.h.m.i.h.i.n.j.o.s.p.s.p.s",
".m.n.m.h.h.h.s.O#D#D#D#D#b.K.x.C.Z#A#4a.ac#s.m.g.m.R#V#S#S#M#s.9#b#N#Vacac#4#t.z.h.h.h.m.i.n.o.o.s.t.t.t",
".m.m.m.h.m.y#e#O#J#D#o.o...........#.2#1#4a#.q.g.x#3#4#S#S.y.#.....c.Sadagad#1#X.8.h.c.h.e.h.i.o.o.s.t.t",
".m.m.h.m.K#B#J#J#J.X.a.............#.a.E#i.K.c.m#kac#4#R.e.............a.C#9#4#U#Q#g.n.c.d.e.i.o.o.o.s.t",
".m.h.h.L#0#Y#O#J.E.........#.#.b.b.b.e.c.e.c.e.m#Qaa#4.s...................a#p#Z#L#K#s.n.b.e.h.n.o.s.o.t",
".h.h.y#L#1#4#C.s.......b.a.a.d.e.h.i.i.i.h.h.h.h.T#z.Z.b.#.b.b.e.c.a...........S#Q#K#G#c.m.b.i.n.n.o.o.s",
".h.h#h#Y#S#A.c.#.#.b.a.b.h.A.2#j#j##.F.n.i.h.i.h.m.e.a.e.v#j#Waba##r.D.g.a.a.....g#F#z#u##.b.h.f.j.o.o.t",
".h.h#O#O#H.h.a.a.c.c.m.O#v#1#Y#4#4#4#4#j.n.d.d.h.i.h.n#Gadadagaeagagaga#.7.l.c.c.a.r#L#I#D.a.h.j.j.o.o.s",
".h.e.W#b.x.#.a.g.m.T#L#S#J#v.5.v.t.H#S#x.H.d.b.h.i.n##aeac.5.i.s#Uagadagag#8.J.g.g.g.J#z#d.b.e.m.o.k.s.y",
".h.e.e.c.a.a.c.q#r#4a.#R.L.3#a.v.....e.Y.Q.t.a.e.h.E#4ad.N.....Oadag#U.8afagag#E.q.h.g.m.e.c.h.n.s.s.s.y",
".h.e.c.c.b.c.r#r#4a.#f.#.n#Y#4#Y.u.....e.P.F.b.e.h#yae#0.....Eagagagaf.h.a#Kagaf#P.x.h.h.h.m.s.t.t.t.s.y",
".h.c.b.c.c.z#F#4#0.m...##Raa#4#4#1.a.....6##.m.b.na#ag.4....#Gagagagag.8.....Kabaga#.K.h.n.z.D.z.z.y.s.y",
".e.c.b.e.y#.#t#4.l.....n#7#4#1#4a..v....#Na..A.c.ra#ag.e....#Lagagagag#T......#Aadad#6.W.s.z.K.z.z.u.y.s",
".g.c.a.m.5#j#S#0.c.....v#1#4#1#4ac.O....#Zae.W.c.sadaf.c....#Uagagagag#Q......#0agafagab.y.y.z.K.u.u.y.s",
".h.e.c.h.W.1#sad.9.....n#4#4#4acac.w....#0ac.U.e.radag.n....#Lagagagag.9.....cafad.T#f.Z.q.x.z.z.z.u.s.o",
".m.h.m.h.m.e.Laa#1.#....#M#4a.a.#1.a...##4#6.t.c.n#2ag#s.....Kagagagag.h.....Wag#P.a.c.h.r.y.y.u.y.t.n.n",
".m.m.i.m.m.m.s#9ad.n.....h#4#4aa.t.....t#4#G.b.g.m#bagag.e.....yab#5.m.....aaeag.8.c.m.r.x.z.z.y.s.o.j.n",
".m.m.m.n.n.n.n#hae#L.a.....e.A.h.....a#M#4.W.b.h.n.ua#ag#K................#zagad.m.g.r.s.y.C.y.s.n.i.n.n",
".m.m.n.n.n.s.n.Kafaf#L.c...........e#L#1#v.h.b.m.n.n.Wagaga#.m.........n#Lacad.A.a.h.r.r.s.y.s.n.i.i.m.m",
".m.m.m.n.n.s.s.n.0abaaad#L.2.G.H#a#1#1#w.n.b.d.i.o.n.s#hafagagae#9#0aaacac#4.W.a.g.m.r.s.r.n.n.m.m.i.h.m",
".h.m.m.m.n.s.s.n.m.K#Gaaagafa.#4#1#Y#e.i.b.b.i.j.o.n.o.m.M#2abadaaa.aa#W#m.n.a.c.h.m.m.n.n.m.m.m.h.h.h.h",
".h.m.m.n.n.s.s.s.n.m.m.y.A.K.A.A.y.o.b.b.d.i.j.n.o.k.o.o.m.s.y.t.t.s.s.m.b.b.c.h.h.i.m.i.m.m.m.h.m.h.h.h",
".h.m.m.n.n.s.n.n.s.m.m.h.e.c.e.c.e.b.h.h.i.j.n.k.o.o.o.t.s.n.i.h.e.e.c.e.e.e.h.i.i.m.i.i.i.i.h.m.h.h.h.h",
".h.m.n.s.n.s.n.s.n.s.m.n.m.n.m.n.m.j.m.j.n.k.o.j.o.k.t.t.s.s.n.n.m.m.h.h.h.m.i.i.m.n.j.m.i.m.i.h.m.h.h.h",
".m.n.s.s.s.s.n.s.n.n.n.o.s.y.s.s.o.s.o.o.o.o.o.p.o.o.t.u.s.s.s.n.n.n.n.i.m.j.m.j.n.n.n.n.m.i.m.h.h.h.h.h",
".s.s.s.s.s.n.s.n.s.n.n.s.t.t.t.t.y.t.t.s.o.t.t.u.y.u.y.u.s.s.n.s.n.n.n.j.n.n.n.n.o.n.n.n.j.m.i.h.m.h.h.h",
".s.x.s.s.s.s.n.n.n.o.o.s.t.t.y.y.y.t.y.u.z.D.D.K.D.D.D.y.y.s.s.n.s.n.j.n.j.n.n.o.n.n.n.n.n.n.m.n.m.m.h.h",
".s.s.s.s.s.n.n.n.n.n.n.o.t.y.y.y.y.y.y.D.I.J.R.I.R.R.I.D.z.y.s.s.n.o.s.o.t.t.t.o.s.n.n.n.n.n.n.n.n.m.h.h",
".x.x.s.s.s.r.m.m.i.i.h.o.y.u.u.z.u.z.y.D.I.J.I.J.R.I.R.R.C.z.y.s.o.t.u.A.u.A.u.y.n.s.r.r.n.m.n.m.n.n.m.m",
".B.B.x.s.r.n.m.h.h.h.f.s.u.u.z.D.D.K.D.D.J.I.J.R.R.I.J.I.D.y.y.u.u.u.z.u.z.u.z.y.s.n.r.n.r.m.n.n.m.n.m.i",
".B.B.x.r.r.m.m.h.e.e.h.n.t.u.A.K.K.z.D.J.I.J.R.I.R.R.R.R.I.D.z.z.A.K.A.z.v.z.u.z.y.s.r.r.n.r.n.m.m.m.i.m",
".x.B.x.r.r.n.m.h.h.e.e.n.t.u.z.K.D.K.D.J.I.J.I.K.D.I.I.I.D.D.A.A.K.A.K.v.z.A.u.z.y.s.s.r.r.m.m.m.h.h.h.h",
".x.B.B.x.r.r.n.m.j.i.e.o.s.t.z.D.K.C.K.D.K.D.z.z.z.z.A.z.A.z.K.A.K.A.A.z.A.y.u.z.y.r.s.n.m.m.h.h.h.e.e.h",
".x.x.x.x.s.x.s.n.o.o.n.o.t.t.u.D.D.K.D.D.y.y.y.t.y.t.y.z.z.A.z.K.A.K.A.z.z.A.z.y.s.m.m.m.e.e.c.c.c.c.c.e",
".s.x.x.s.r.x.s.y.s.t.t.p.s.s.y.z.K.z.K.y.s.s.s.o.o.n.t.A.z.z.K.A.K.A.K.z.z.z.z.y.n.h.h.h.a.c.c.b.c.c.c.b",
".r.s.r.r.r.s.s.y.x.s.s.s.t.s.y.z.D.D.K.y.t.t.o.n.i.n.t.u.z.z.A.K.A.K.z.A.z.z.z.y.n.e.h.e.c.b.c.c.b.b.b.c",
".s.s.s.n.n.r.x.y.x.y.y.y.y.y.s.D.D.A.z.y.t.o.n.j.i.n.n.s.t.u.z.z.z.A.D.z.z.A.y.t.n.h.h.e.e.c.b.c.c.b.c.d",
".s.r.r.m.n.r.s.s.y.x.y.x.y.y.y.C.K.z.D.v.y.o.i.i.j.i.n.o.s.t.u.z.K.y.K.z.D.A.z.y.o.n.h.e.e.c.b.b.b.b.e.c"
};
