/* XPM */
static char *buttonSchedOn[] = {
/* width height num_colors chars_per_pixel */
"    47    47      145            2",
/* colors */
".. c #000000",
".# c #080008",
".a c #080010",
".b c #080018",
".c c #100018",
".d c #100021",
".e c #100029",
".f c #180021",
".g c #180029",
".h c #180031",
".i c #180039",
".j c #180042",
".k c #210029",
".l c #210031",
".m c #210039",
".n c #210042",
".o c #21004a",
".p c #210831",
".q c #210839",
".r c #290031",
".s c #290042",
".t c #29004a",
".u c #29005a",
".v c #290063",
".w c #310039",
".x c #310042",
".y c #31004a",
".z c #310052",
".A c #310063",
".B c #31006b",
".C c #390042",
".D c #390052",
".E c #39005a",
".F c #390063",
".G c #39006b",
".H c #390073",
".I c #390852",
".J c #420052",
".K c #42005a",
".L c #420063",
".M c #42006b",
".N c #420073",
".O c #42007b",
".P c #420084",
".Q c #4a006b",
".R c #4a0073",
".S c #4a007b",
".T c #4a0084",
".U c #4a008c",
".V c #4a009c",
".W c #4a00a5",
".X c #520073",
".Y c #520084",
".Z c #52008c",
".0 c #520094",
".1 c #52009c",
".2 c #5200a5",
".3 c #5200bd",
".4 c #520873",
".5 c #5a007b",
".6 c #5a008c",
".7 c #5a009c",
".8 c #5a00a5",
".9 c #5a00b5",
"#. c #5a00bd",
"## c #5a00ce",
"#a c #630084",
"#b c #63008c",
"#c c #63009c",
"#d c #6300a5",
"#e c #6300ad",
"#f c #6300bd",
"#g c #6300c6",
"#h c #6300ce",
"#i c #6300d6",
"#j c #6b0094",
"#k c #6b009c",
"#l c #6b00a5",
"#m c #6b00ad",
"#n c #6b00b5",
"#o c #6b00c6",
"#p c #6b00ce",
"#q c #6b00d6",
"#r c #6b08a5",
"#s c #7300a5",
"#t c #7300b5",
"#u c #7300bd",
"#v c #7300c6",
"#w c #7300ce",
"#x c #7300d6",
"#y c #7300de",
"#z c #7b009c",
"#A c #7b00c6",
"#B c #7b00ce",
"#C c #7b00e7",
"#D c #7b08bd",
"#E c #8400a5",
"#F c #8400c6",
"#G c #8400d6",
"#H c #8400de",
"#I c #8400e7",
"#J c #8400ef",
"#K c #8400f7",
"#L c #8400ff",
"#M c #8408bd",
"#N c #8c00ad",
"#O c #8c00ce",
"#P c #8c00d6",
"#Q c #8c00ef",
"#R c #8c00f7",
"#S c #9400ce",
"#T c #9400d6",
"#U c #9400e7",
"#V c #9400ef",
"#W c #9400f7",
"#X c #9400ff",
"#Y c #9c00c6",
"#Z c #9c00de",
"#0 c #9c00e7",
"#1 c #9c00ef",
"#2 c #9c00f7",
"#3 c #9c00ff",
"#4 c #a500e7",
"#5 c #a500f7",
"#6 c #a500ff",
"#7 c #a518e7",
"#8 c #ad00de",
"#9 c #ad00f7",
"a. c #ad00ff",
"a# c #b500f7",
"aa c #b500ff",
"ab c #bd00e7",
"ac c #bd00f7",
"ad c #bd00ff",
"ae c #bd08ff",
"af c #ce00ef",
"ag c #ce00ff",
"ah c #de00f7",
"ai c #de00ff",
"aj c #e700ff",
"ak c #e710f7",
"al c #ef00f7",
"am c #f700ff",
"an c #f708ff",
"ao c #ff08ff",
/* pixels */
".m.m.l.g.g.g.g.g.g.g.l.m.m.m.m.n.m.s.m.m.m.f.g.f.e.g.e.g.m.k.m.g.f.c.a.a.a.c.g.f.f.f.d.f.f.g.l",
".m.m.m.k.k.l.g.g.m.g.m.m.m.m.n.m.s.s.s.l.g.f.f.d.d.g.d.g.g.f.g.f.c.a.a.a.a.a.c.f.g.f.d.g.g.g.l",
".m.m.m.k.g.l.g.m.g.m.m.m.m.m.m.m.m.l.l.f.f.d.d.d.f.d.g.f.g.f.f.f.c.c.a.a.a.c.c.f.g.f.g.g.f.g.l",
".m.m.k.m.g.k.g.m.l.m.m.m.l.l.j.z.A.G.V#e#o#o#n.8.S.u.n.g.f.f.f.f.d.f.f.d.f.f.f.f.f.g.g.g.g.l.j",
".m.k.m.k.g.l.g.g.l.l.l.m.m.B.3#C#y#i#h#g#p#H#X#R#K#K#1#G.M.f.f.d.f.g.f.d.f.f.f.d.d.f.h.l.m.n.s",
".m.k.g.g.g.g.l.g.h.h.l.E#t#K###h#i#p#f#f#p#I#6#X#3#6#3#5#W#c.n.f.f.g.g.d.f.f.f.f.f.g.g.m.t.x.s",
".k.g.c.f.g.g.g.g.g.g.Na##6#H#p#y#q.H.j.a.c.c.a.m.Y#5#5#3#5#V#W.U.f.f.e.f.g.f.f.g.f.g.l.m.s.x.s",
".f.c.f.c.f.g.g.g.g.Taaad#U#B#d.n.a.......G.7.a.......s#k#X#V#Q#R.1.f.f.f.g.g.f.f.g.g.m.m.s.s.w",
".c.c.c.f.f.g.g.g.Tadad#6#H.m...........Hadad#D...........f#K#R#R#K#v.f.f.g.f.g.g.f.g.m.k.m.r.s",
".c.c.f.c.f.g.g.Fa.adad#I.m...g.m.......0adad#D.......a.g...f.8#X#R#R.6.c.g.k.k.g.g.g.k.m.m.k.m",
".c.c.c.f.g.g.l#Waaadad.c...aamaj.n.....0agaj#M......#U#6.u.#.c#x#R#R#X.z.f.k.m.m.m.m.m.k.m.k.m",
".c.c.f.f.g.g.8adagad.D......#Mai#G.....2agai#l.....Rad#V.f.a.c.j#f#L#R#K.g.g.m.j.m.l.l.m.r.m.k",
".c.c.f.g.g.Gadagai.M.........aaiag.#...2agag.F...aadad.m.a.c.f.d.o#X#3#3.W.f.h.j.l.j.l.m.m.r.r",
".c.f.d.f.g#wagagad.a...........G.P.....Vadad.S.....R.X.a.c.d.g.o.n#Gadad#4.f.h.i.j.l.j.m.k.m.m",
".f.d.f.g.ma#ajaj.Y.kag#4.s.............Ua.aa.N.....a.a.c.f.o#.#3.9.madadad.v.f.h.j.l.l.l.j.m.k",
".f.f.l.l.Hajajag.a.a#0aaaa.G...........P#6#6.N.....a.a.c.y#3#6#3.O.c#fadaa#o.c.h.j.l.i.l.g.l.l",
".g.g.l.j#Dajai#u.......Naa#B...........U#6#3.G.......c.c.Dad#P.f.a.c.uaea.#1.c.h.l.h.h.e.g.g.l",
".k.l.j.m#Taiad.F.........c.#...........U#6#K.A.......a.c.f.J.f.a.c.f.oada.#1.c.e.h.g.c.d.d.g.l",
".g.k.m.ma#aiaa.g.......................U#6#K.8.......c.f.c.c.c.f.f.g.uaaa.#V.a.g.e.c.b.d.d.g.h",
".f.g.m.ga#aa#X.c...M.T.Z.u.............U#6#K#X#J#h#g#o#F.y.s.5#b#j.J.saaad#V.a.f.c.b.c.c.d.g.l",
".f.g.f.g#H#F#A.c.ca.adaga#.............U#6#X#X#h.2#e#n#A#b#Yagaiao#S.macad#5.a.g.d.c.d.d.g.g.m",
".f.f.d.f#n#H#P.c...s.M.M.m.............G#C#v#f.1.P.U.1.T.g.m#b#b#j.m.ladaa#5.a.g.h.h.j.l.l.h.g",
".f.d.f.d.0#F#O.m...........................................a.c.c.c.f.oadaa#9.a.g.j.m.n.n.m.m.m",
".f.d.f.f.4#T#Z.Q...........................................a.f.g.g.h.Oadada#.a.l.j.m.n.m.m.s.s",
".d.d.g.p.Iae#9#4.........z#S.c..........................#A#P.t.g.m.j#fadag#H.c.h.j.n.n.m.m.m.m",
".f.g.g.d.p#7#9a..s.....Y#Xa..D.........................#ajajah.T.m.t#9adad.P.c.h.j.j.m.n.m.m.m",
".g.g.p.p.d#r#2#1#H...E#G#C.s.............................cafajam.m#Aaiad#9.c.d.i.j.m.j.m.m.m.m",
".p.g.g.g.d.L#2#2#V.g.a.E.g.#.....g.a...............Z.z.......N.y.aajajag#g.a.g.j.j.j.l.i.j.j.m",
".m.q.p.g.g.f#M#V#u#m.c.#.a.a.a.F#U#T.....#.f.....cagaj.c........#uajamai.j.a.g.j.j.l.i.i.l.j.m",
".n.m.p.d.p.d.q#M#d.8.Z.a.a.a.f#e#n.u....#daa.c....#Taj#T......#caiajam#d.a.f.h.j.l.i.h.i.i.j.m",
".n.l.g.p.f.f.f.E#m#d#s#a.f.a.o#n.0.#.#.a#wa..g.....aajam.a..#dajajam#8.a.c.l.h.j.j.h.i.i.j.j.j",
".m.j.g.f.g.f.d.d.L#s#E#E#a.g.g.G.l.#.a.c#xa..g.......l.E.g#Aajajagab.m.a.g.j.m.m.j.j.j.j.j.j.m",
".m.m.l.g.f.d.f.d.c.4#N#E#E#d.N.f.#.a.c.c.1#1.a.........7aiajajaj#9.c.c.g.m.m.n.j.m.m.j.j.j.m.j",
".m.l.j.l.g.l.d.f.f.f.4#Y#Y#l#g#H.U.n.n.m.z.E.#.c.m.Zafanajajaj#P.m.a.g.m.s.s.n.s.n.n.m.n.n.n.n",
".m.l.m.m.m.n.l.g.k.k.f.C#8#Z#Va.a.a.adaiahahamaoaoamanananaj.7.a.c.g.j.s.t.t.t.t.t.o.n.t.t.u.t",
".l.j.m.m.n.m.m.m.s.r.r.k.s#zabaiagajaoaoaoaoaoaoaoamanak#D.m.a.c.g.j.s.s.t.y.t.t.y.y.z.D.D.D.D",
".j.m.m.m.m.m.m.s.s.w.s.w.k.f.k.L#Salalalalalalalah#8.Y.c.a.c.f.g.h.n.t.t.y.t.z.y.y.D.J.K.K.K.K",
".m.m.m.m.m.m.m.m.r.r.r.r.w.s.m.k.f.f.c.c.a.c.a.c.c.c.c.c.f.f.g.h.g.j.t.z.z.y.z.z.y.D.J.K.J.K.K",
".m.m.m.m.m.n.m.g.k.k.k.m.w.x.x.s.s.m.m.k.m.k.r.r.k.m.g.m.g.g.g.g.h.n.t.u.z.D.z.E.D.K.J.K.J.K.k",
".n.s.s.n.m.m.m.k.g.k.g.k.r.s.x.x.x.x.s.s.s.w.w.C.w.s.m.m.k.g.e.e.e.j.t.z.z.E.L.D.E.J.K.J.K.K.m",
".s.s.s.s.m.m.m.g.g.g.k.g.k.m.s.s.x.s.x.x.s.x.x.C.x.s.r.m.m.g.g.e.e.j.s.u.D.E.K.E.D.K.J.K.J.J.m",
".t.t.s.s.s.m.k.l.f.g.f.g.g.g.g.s.m.s.s.x.s.x.x.C.C.w.s.s.m.l.h.h.e.j.s.t.z.E.E.J.E.D.E.D.E.u.k",
".t.t.t.t.s.m.m.g.g.g.g.g.g.g.g.m.m.s.s.s.s.x.x.C.y.x.x.x.s.n.n.j.m.n.o.t.z.D.E.D.K.D.y.y.t.t.m",
".t.t.y.y.y.s.s.m.g.g.g.g.g.g.g.l.m.n.s.s.s.s.x.x.x.x.s.x.s.t.s.t.o.t.n.s.t.D.E.E.D.z.t.s.n.n.s",
".t.t.y.y.y.y.y.s.m.g.g.g.g.g.g.l.j.m.s.s.s.s.s.s.x.s.s.s.x.y.y.x.n.t.s.t.y.D.D.E.E.z.t.o.n.m.s",
".y.y.y.t.y.y.y.s.m.m.g.g.g.g.g.g.l.m.s.s.s.t.x.s.s.s.m.s.x.y.y.y.y.y.y.y.x.D.E.z.D.u.n.s.j.l.s",
".s.t.t.y.y.y.y.y.s.s.m.g.l.g.l.h.j.m.s.t.s.x.s.s.s.r.s.m.s.x.y.y.y.x.y.y.y.D.D.E.E.z.t.j.l.h.s"
};
