/* XPM */
static char *buttonSettingsOn[] = {
/* width height num_colors chars_per_pixel */
"    52    50      161            2",
/* colors */
".. c #000000",
".# c #080010",
".a c #080018",
".b c #100010",
".c c #100018",
".d c #100021",
".e c #100029",
".f c #180021",
".g c #180029",
".h c #180031",
".i c #180039",
".j c #180052",
".k c #180821",
".l c #210029",
".m c #210031",
".n c #210039",
".o c #210042",
".p c #21004a",
".q c #210052",
".r c #210829",
".s c #210831",
".t c #290039",
".u c #290042",
".v c #29004a",
".w c #290052",
".x c #29005a",
".y c #290073",
".z c #29007b",
".A c #290084",
".B c #290831",
".C c #310042",
".D c #31004a",
".E c #310052",
".F c #31005a",
".G c #310063",
".H c #31006b",
".I c #310084",
".J c #39004a",
".K c #39005a",
".L c #390063",
".M c #39006b",
".N c #390073",
".O c #39007b",
".P c #390084",
".Q c #39008c",
".R c #39009c",
".S c #3900b5",
".T c #420052",
".U c #420063",
".V c #42006b",
".W c #42007b",
".X c #420084",
".Y c #42008c",
".Z c #420094",
".0 c #4200c6",
".1 c #4a005a",
".2 c #4a0063",
".3 c #4a006b",
".4 c #4a0073",
".5 c #4a007b",
".6 c #4a0084",
".7 c #4a008c",
".8 c #4a0094",
".9 c #4a009c",
"#. c #4a00ad",
"## c #4a00b5",
"#a c #520063",
"#b c #52007b",
"#c c #520084",
"#d c #52008c",
"#e c #52009c",
"#f c #5200c6",
"#g c #5200d6",
"#h c #5a006b",
"#i c #5a0073",
"#j c #5a007b",
"#k c #5a0084",
"#l c #5a008c",
"#m c #5a00a5",
"#n c #5a00bd",
"#o c #5a00ce",
"#p c #5a00d6",
"#q c #630084",
"#r c #63009c",
"#s c #6300a5",
"#t c #6300ad",
"#u c #6300b5",
"#v c #6300de",
"#w c #6300ff",
"#x c #63086b",
"#y c #6b0084",
"#z c #6b008c",
"#A c #6b0094",
"#B c #6b009c",
"#C c #6b00ad",
"#D c #6b00c6",
"#E c #6b00ce",
"#F c #6b00e7",
"#G c #6b00ef",
"#H c #6b00ff",
"#I c #730094",
"#J c #7300a5",
"#K c #7300bd",
"#L c #7300ce",
"#M c #7300d6",
"#N c #7300ef",
"#O c #7300ff",
"#P c #7b009c",
"#Q c #7b00a5",
"#R c #7b00b5",
"#S c #7b00bd",
"#T c #7b00d6",
"#U c #7b00e7",
"#V c #7b00ef",
"#W c #7b00ff",
"#X c #8400b5",
"#Y c #8400bd",
"#Z c #8400c6",
"#0 c #8400d6",
"#1 c #8400e7",
"#2 c #8400f7",
"#3 c #8400ff",
"#4 c #8c00bd",
"#5 c #8c00c6",
"#6 c #8c00ce",
"#7 c #8c00d6",
"#8 c #8c00de",
"#9 c #8c00ef",
"a. c #8c00ff",
"a# c #9400c6",
"aa c #9400ce",
"ab c #9400d6",
"ac c #9400e7",
"ad c #9400ef",
"ae c #9400f7",
"af c #9c00c6",
"ag c #9c00ce",
"ah c #9c00d6",
"ai c #9c00de",
"aj c #9c00f7",
"ak c #a500e7",
"al c #a500f7",
"am c #a500ff",
"an c #a508ce",
"ao c #ad00ef",
"ap c #b500e7",
"aq c #b500ef",
"ar c #b500ff",
"as c #bd00e7",
"at c #bd00f7",
"au c #bd00ff",
"av c #c600ff",
"aw c #d600f7",
"ax c #d600ff",
"ay c #de00ef",
"az c #de00ff",
"aA c #e700ff",
"aB c #ef00ff",
"aC c #f700ff",
"aD c #ff00ff",
"aE c #ff18ff",
/* pixels */
".a.a.a.b.a.b.a.#.#.a.a.b.c.c.d.d.g.g.h.h.u.u.u.l.l.d.d.d.d.g.g.h.h.m.m.t.t.t.u.u.u.n.n.n.n.n.u.u.u.o.u.h",
".#.a.b.b.c.c.b.a.#.b.c.c.c.d.c.g.g.g.h.n.u.D.C.l.l.g.g.g.e.g.h.h.h.m.m.m.t.m.u.m.h.u.n.n.o.n.u.n.u.n.u.h",
".#.a.a.b.c.c.c.b.b.a.a.a.c.c.d.d.g.e.h.h.m.u.m.l.l.g.e.g.g.e.h.h.m.m.m.t.m.m.u.m.n.n.n.o.o.u.u.m.u.h.m.u",
".#.a.a.c.c.d.f.c.a.#.#.#.c.c.c.d.d.d.g.g.g.g.g.g.g.g.g.g.h.h.g.h.m.m.m.m.m.m.u.u.n.u.u.u.u.u.t.u.m.u.h.m",
".a.a.b.c.d.c.c.c.c.b.b.c.c.g.w.W.7.Z.H.h.d.e.g.e.g.e.g.h.h.h.N#S#6#4#k.u.m.m.h.h.u.n.u.u.C.C.C.u.u.m.u.h",
".a.c.c.d.c.d.c.d.b.a.f.c.h#e#D#D#Ta.#W##.n.d.e.e.e.g.h.g.o#namavavaxavai.K.l.h.h.h.u.u.C.C.u.C.C.t.m.h.h",
".c.c.c.c.d.c.d.c.c.a.c.K#S#S#M#d.5#Ca.#O#H.p.d.e.g.h.g.H#2amam#C#k#Bakavax.4.l.h.m.u.u.u.t.t.t.t.m.u.l.h",
".c.c.d.c.d.c.c.d.c.c.C#Z#5#q.c.#.#.#.d#o#O#w.o.d.g.h.pamam#9.a........#saxax#d.l.h.u.m.u.m.m.u.m.u.h.h.m",
".c.d.d.d.c.d.d.d.d.m#Yao#4.a.#.c.l.d.c.l#va.#9.g.g.h#0aual.#............#sazax.u.m.u.u.m.u.h.m.u.h.m.n.h",
".c.d.d.d.d.d.d.l.c.3arak.c.##jalamal#r.d.galaB.D.l.3azav.#................aiaA#C.d.u.n.n.n.h.h.h.m.n.h.h",
".c.c.l.d.l.c.d.d.l#Cax.3.a.Taramamarau.u.daaaD#h.c#AaA#B...................5aB#Z.c.h.u.h.h.h.h.h.m.n.h.u",
".a.c.d.d.d.d.l.l.la#az.C.a#Jauamararav#c.d#4aD#y.c#Iaz.m...................vazab.c.l.h.h.h.h.h.h.m.m.m.h",
".a.a.c.d.l.c.d.m.ma#az.J.b#BamamamamaA#b.cafaD#y.c#Aaz.D...................wavaa.c.g.h.g.g.g.g.h.h.m.u.m",
".#.#.a.c.d.d.l.l.l#Bax#Q.a.Cadaeajamax.m.cayaD.1.b#iaAah..................#mav#u.c.d.g.g.e.g.d.g.l.h.m.u",
".#.#.a.c.d.d.d.d.l.Kavar.u.b.u#Tad#7.u.a.2aDaD.l.c.CaEaE.K...............#amav.L.a.d.g.d.g.d.l.g.g.d.l.u",
".#.#.b.c.c.d.c.c.c.d.3akak.u.#.a.c.a.#.3aDaC#q.b.c.l#xaEaA.J...........l#1ar#L.a.c.g.g.d.g.g.d.g.d.d.l.u",
".a.b.c.c.c.c.c.c.c.a.b#s#6#R.8.o.m.D#RazaC#4.b.c.m.l.lanaAax#Y.l.#.d#CaAauac.a.b.d.l.g.d.g.d.l.d.l.g.l.h",
".b.c.c.c.c.c.c.c.c.c.a.d.M#K#1a.ajajavav#R.c.c.l.l.m.m.t#QaqauamaravaAax#7.d.c.d.l.h.l.g.d.g.d.g.h.h.h.u",
".c.f.c.c.c.c.c.c.a.a.a.#.a.c.H#T#8#Z#c.l.#.b.l.l.m.t.m.m.c.l.4#7aqap#C.h.a.c.l.m.m.m.h.l.h.l.h.h.m.u.h.u",
".c.c.d.c.c.c.c.a.a.a.a.a.a.a.a.a.a.a.#.b.d.l.l.m.m.t.m.m.m.l.c.c.c.c.c.d.l.l.h.u.m.u.m.h.m.m.n.h.n.n.u.u",
".c.c.c.d.d.c.c.c.c.a.a.a.b.c.c.d.c.c.l.d.m.m.m.m.m.t.m.m.m.l.l.l.g.d.g.h.n.u.t.u.t.m.m.m.u.h.m.u.h.u.u.u",
".c.c.d.c.d.d.d.d.d.d.l.g.g.g.g.g.l.g.l.m.m.u.t.m.m.m.u.u.m.u.m.n.n.n.o.o.u.o.C.u.t.u.m.m.m.n.h.m.u.m.u.u",
".d.d.c.d.d.g.g.d.g.G#N#F#F#v#F#Vaeadalaoavawat.U.l#daxatatavawatavawauavawaAaC#R.m.m.m.u.h.u.h.u.h.u.u.u",
".k.l.d.l.g.g.g.g.g.L#W#W#H#H#Wa.aj#1adajajamam.u.c.WavavaxaxaxaxavavaxaBaCaCaD#B.d.l.h.h.m.m.m.m.u.m.u.u",
".r.r.u.h.m.n.h.h.g.Ha.#N.g.g.g.h.h.d.c.d.d#l#E.h.a.waeab.v.4.h.u.u.u.u.F#rasaD#k.c.d.l.l.l.h.u.m.m.u.t.m",
".r.B.B.u.h.u.h.m.h.M#3#F.#.#.c.c.a.#.#.#.a.M#f.g.a.p#F.9.a#M.h.a.a.c.dahagagaD#c.a.l.l.g.g.h.l.l.d.l.u.m",
".r.B.u.h.u.m.m.u.l.M#3#v.a.c.d.l.d.c.c.a.a.O#f.h.#.q#p.P.#.d#o.o.c.h#n#u.l#ZaD#l.c.m.u.h.n.h.g.c.c.c.l.h",
".B.s.h.m.u.m.m.h.h.V#3#U.a.c.h.m.h.l.d.c.c.P#f.h.a.p#v.Q.#.a.g.S.i.I.Q.c.c#SaD#I.d.m.C.u.o.h.g.c.c.c.c.d",
".m.m.m.m.m.h.m.l.l.Vamac.a.l.l.h.m.h.l.d.g.Y#g.h.a.q#F.Z.#.a.a.j.0.A.a.a.c#SaD#J.f.t.u.C.u.n.g.d.c.c.c.d",
".m.l.h.l.h.m.l.h.l.Vauac.a.c.m.m.h.l.l.l.g#m#W.o.a.w#F.Z.#.a.a.A.z.Q.h.a.c#ZaD#Q.c.t.u.u.m.h.l.d.d.d.d.c",
".l.l.l.g.g.l.g.l.l.Var#7.a.c.h.m.l.l.h.l.g#Cam.p.a.x#G.R.#.a.I.y.a.u#E.l.d#ZaD#Q.c.t.u.u.m.l.g.d.d.d.d.d",
".d.g.g.g.g.g.l.g.l.Uaa#B.#.b.l.l.g.l.h.l.l#Dam.v.c.H#H.R.a.X.X.a.#.a.l#M.VaaaD#Q.c.t.C.t.l.g.d.g.d.d.l.c",
".c.d.g.g.g.g.d.c.c.C#A#z.#.a.c.l.l.l.l.l.l#Kav.w.c.N#3#..c.5.a.a.b.c.c.E#taiaD#I.l.m.t.m.d.d.d.d.d.l.c.d",
".c.c.d.d.d.d.b.b.a.l#i#J#a#a#i#q#z#I#P#I#Qaqav.D.c.Wam#1.6#c#c.6#d#d.8#r#CawaD#I.c.m.m.l.d.d.d.d.l.c.l.d",
".c.c.d.d.l.b.a.#.b.l#q#XagagagagaiavaAaAaBazax.E.c.6auarararararamararaDaDaDaD#Q.l.m.h.d.d.d.d.l.c.d.l.d",
".c.c.c.c.c.b.#.#.#.b.m.t.t.C.u.C.C.C.J.1.2.1.L.l.d.v.5.V.K.F.K.F.K.K.1#h#i#i#k.D.l.m.u.l.c.d.d.c.l.d.l.l",
".c.c.c.l.b.c.b.b.b.a.#.#.#.b.#.b.#.b.b.b.c.c.c.d.l.g.d.d.c.c.c.c.c.c.c.f.f.c.l.l.l.u.u.o.h.l.d.l.d.l.l.m",
".c.c.l.b.l.c.b.b.a.#.b.#.b.b.c.c.c.c.c.l.g.l.l.g.g.l.g.l.g.l.l.l.l.l.l.m.m.m.u.u.u.o.u.v.u.l.d.l.d.m.m.u",
".c.c.l.c.f.f.c.c.a.#.a.#.#.a.a.c.d.l.c.l.m.m.m.m.l.g.g.g.l.l.l.l.l.h.m.t.t.u.u.u.u.v.u.u.u.h.g.d.l.h.m.m",
".c.l.c.l.c.d.d.c.a.#.#.#.#.#.a.a.c.d.d.l.c.m.l.d.l.d.d.l.d.l.d.l.l.m.m.m.m.h.u.u.u.u.u.u.u.u.m.u.m.u.m.m",
".d.c.d.c.d.l.c.d.c.c.a.a.#.#.#.a.c.d.c.d.l.c.c.l.c.d.d.f.c.d.c.l.d.l.l.l.m.l.h.u.h.u.h.u.u.u.u.u.u.u.u.m",
".d.d.d.d.d.d.d.l.d.d.d.c.a.#.a.c.d.d.d.l.c.d.l.c.d.c.f.c.l.c.l.c.d.l.l.l.l.g.h.m.u.h.u.h.u.u.u.u.u.u.u.h",
".d.l.d.d.l.d.l.d.d.l.d.d.c.c.c.d.d.d.d.d.l.c.d.l.c.c.f.c.c.c.c.c.d.c.c.d.l.g.h.h.m.h.m.h.l.n.o.u.o.o.u.h",
".l.d.l.d.g.d.d.l.d.l.d.d.d.d.d.d.d.l.d.l.c.d.d.d.c.l.c.c.c.c.d.d.c.d.c.d.g.g.l.h.m.h.m.h.g.h.h.h.n.n.n.h",
".d.l.g.g.d.l.d.l.d.l.d.l.d.l.g.d.l.d.l.d.d.l.c.d.f.c.d.l.c.d.c.d.c.c.c.c.d.g.g.h.m.h.h.h.g.e.d.e.e.g.e.h",
".l.g.g.g.d.l.d.d.l.c.d.d.d.l.g.g.g.d.d.l.d.d.l.c.c.d.f.c.d.c.c.c.d.c.c.c.d.l.h.h.u.h.m.h.g.g.e.d.d.d.e.h",
".g.d.l.d.l.c.l.c.d.l.d.d.d.g.g.g.g.g.d.l.d.l.c.d.d.c.d.d.g.g.d.d.a.c.a.a.d.l.l.h.m.h.u.l.g.g.d.d.d.a.d.h",
".d.l.d.d.d.d.d.d.c.d.d.d.d.l.g.g.g.d.l.d.l.d.d.f.c.d.l.l.g.h.g.d.d.c.c.d.l.g.g.h.m.h.h.h.g.g.d.d.d.d.d.h",
".d.d.l.d.d.d.c.d.d.c.d.c.d.l.g.g.g.g.d.l.d.d.c.d.l.c.d.l.h.g.g.g.g.g.l.g.g.l.l.g.l.l.g.l.g.d.d.d.d.c.g.h",
".d.l.d.d.d.d.c.d.c.d.c.c.c.c.g.g.g.d.l.d.l.c.c.d.c.d.l.g.h.l.h.h.l.g.l.g.l.g.g.l.g.g.g.g.d.l.f.f.d.d.d.h"
};
