/* XPM */
static char *buttonHelp[] = {
/* width height num_colors chars_per_pixel */
"    50    46      115            2",
/* colors */
".. c #000000",
".# c #080008",
".a c #080018",
".b c #080021",
".c c #100010",
".d c #100021",
".e c #100029",
".f c #100031",
".g c #100039",
".h c #100042",
".i c #180018",
".j c #180029",
".k c #180031",
".l c #180042",
".m c #180052",
".n c #180063",
".o c #210021",
".p c #210029",
".q c #210031",
".r c #210039",
".s c #210042",
".t c #21004a",
".u c #210052",
".v c #210063",
".w c #290031",
".x c #290039",
".y c #290042",
".z c #290052",
".A c #29005a",
".B c #29007b",
".C c #310039",
".D c #310042",
".E c #31004a",
".F c #310052",
".G c #31006b",
".H c #310073",
".I c #310084",
".J c #39004a",
".K c #39005a",
".L c #390063",
".M c #39006b",
".N c #39007b",
".O c #390094",
".P c #42005a",
".Q c #420063",
".R c #42006b",
".S c #420073",
".T c #42007b",
".U c #420084",
".V c #42008c",
".W c #420094",
".X c #42009c",
".Y c #4a0063",
".Z c #4a0073",
".0 c #4a007b",
".1 c #4a0084",
".2 c #4a0094",
".3 c #4a009c",
".4 c #520073",
".5 c #52007b",
".6 c #520084",
".7 c #52008c",
".8 c #52009c",
".9 c #5200a5",
"#. c #5200b5",
"## c #5a0073",
"#a c #5a007b",
"#b c #5a0084",
"#c c #5a008c",
"#d c #5a0094",
"#e c #5a009c",
"#f c #5a00a5",
"#g c #5a00b5",
"#h c #5a00bd",
"#i c #630084",
"#j c #63008c",
"#k c #630094",
"#l c #63009c",
"#m c #6300a5",
"#n c #6300ad",
"#o c #6300bd",
"#p c #6300c6",
"#q c #6300ce",
"#r c #6b009c",
"#s c #6b00ad",
"#t c #6b00b5",
"#u c #6b00c6",
"#v c #6b00ce",
"#w c #73009c",
"#x c #7300a5",
"#y c #7300b5",
"#z c #7300c6",
"#A c #7300ce",
"#B c #7b00ad",
"#C c #7b00b5",
"#D c #7b00bd",
"#E c #7b00ce",
"#F c #8400a5",
"#G c #8400ad",
"#H c #8400b5",
"#I c #8400c6",
"#J c #8400ce",
"#K c #8c00b5",
"#L c #8c00bd",
"#M c #8c00c6",
"#N c #8c00ce",
"#O c #9400bd",
"#P c #9400ce",
"#Q c #9c00c6",
"#R c #9c00ce",
"#S c #9c00d6",
"#T c #a500d6",
"#U c #ad00ce",
"#V c #b500d6",
"#W c #bd00d6",
/* pixels */
".y.y.x.r.k.k.k.k.w.x.w.x.w.x.w.r.k.k.q.w.w.x.x.x.x.x.x.x.s.x.s.E.E.y.x.j.d.d.d.k.w.x.x.s.x.x.x.x.y.y",
".s.y.x.r.k.k.k.q.k.w.w.w.r.w.r.k.q.q.w.r.x.r.w.x.w.x.x.r.s.s.y.y.E.y.r.d.d.d.d.q.r.r.x.x.x.r.r.x.x.x",
".s.s.w.k.r.k.k.q.q.k.q.k.k.k.j.q.w.r.r.w.x.r.r.k.r.r.w.r.x.y.y.y.y.w.k.d.d.j.j.k.w.r.r.r.r.r.r.r.w.r",
".s.r.r.k.k.q.q.k.q.q.q.p.j.j.d.j.k.r.k.y.R.R.0.Z.R.Z.Z.K.E.y.y.y.x.w.k.j.i.j.q.w.r.r.w.x.r.r.r.r.q.q",
".r.k.r.k.q.k.q.q.k.q.q.j.j.j.d.e.e.k.L.6#d#c#d#c#c#c#l#B#r.Y.D.y.y.x.q.p.k.q.q.w.w.r.r.x.r.w.x.w.w.w",
".r.r.k.q.k.q.q.k.q.k.j.j.d.d.e.g.m.G.T.6#c.7#c#c#c.7#j#r#H#L#F.4.J.x.k.j.q.k.q.r.r.w.x.r.x.w.x.w.w.w",
".r.r.k.q.w.r.k.q.k.k.j.j.d.k.n.B.B.N.T.7#c#c#c#c#c#c#c#j#x#G#K#H#B.K.k.k.j.k.k.j.j.r.k.w.x.w.w.w.w.w",
".r.r.k.w.r.k.k.k.q.k.k.k.x.N.V.V.U.7.6.7#c#c.7.6.6#c#c#c.6#r#G#H#D#m.E.k.k.j.k.d.d.d.d.p.w.k.q.x.q.x",
".x.r.r.r.k.w.r.k.w.r.w.M#f.8#m#f.2#e.7.L.k.d.#.#.x.x.s.K.Z#c#d#l#t#n.2.L.j.j.k.d.d.d.c.d.j.i.k.q.p.p",
".r.r.r.r.r.r.r.r.r.s.E#z#D#t#E#D#n.7.c...........r.k.k.....E.N.1#m#n.2.U.u.j.j.e.d.c.d.c.d.i.j.p.q.p",
".x.x.r.x.r.r.x.x.x.z#t#E#E#D#E#t.d.......d.L.1#c.7.0.R.c.....#.z.9#..W.2.U.t.d.a.c.d.c.d.c.j.j.p.p.p",
".s.x.x.r.r.s.s.E.E#t#J#J#E#E#E.d.......r#f.8#f.8#e.8.8.2.r.......G.W.U.2.U.A.e.c.b.c.d.c.d.j.p.j.q.q",
".y.x.x.r.r.s.z.E.T#P#J#E#E#t.j.......L#n#f.8.2.3#f#n#n#g#f.d.......L.T.U.G.s.j.b.a.c.d.c.d.d.j.j.j.p",
".y.s.x.x.l.s.F.z#C#S#J#E#J.d.......##z#v#o.9.9.2#f#v#z#v#E#n.#.....#.N.M.z.s.s.a.#.d.a.c.d.c.e.d.j.i",
".y.y.s.x.r.t.F.M#S#T#S#P#r.........c#v#z#A#p.s.#.#.N#q#v#z#J.r.......r.M.L.u.z.r.c.b.c.b.c.d.d.d.c.e",
".E.y.y.x.r.s.z#e#S#T#T#R.j.........##u#z#z.k.........8#v#z#z.L.........z.L.A.A.A.d.c.d.c.b.d.c.d.c.d",
".D.D.y.x.r.s.K#I#T#U#T#B.............r.T.j...........8#v#z#q.A.........d.L.L.L.F.d.d.c.d.c.b.c.b.c.a",
".E.E.E.y.x.s.5#U#V#W#U.J...........................T#v#v#p#g.j.........#.z.L.F.L.k.d.c.d.c.b.c.d.a.#",
".E.E.E.y.s.y#w#U#U#R#Q.j.....................d.T#g#v#v#q#o.2.............z.K.L.F.r.c.d.c.d.c.d.c.a.#",
".J.E.E.E.y.E#G#P#O#K#G.c...................##q#v#q#p#p#o#..d.............z.K.L.F.w.d.d.c.d.c.c.c.c.#",
".E.E.E.E.E.E#B#H#G#F#r.d...................d#t#p#h#h#h.U.d...............E.L.z.L.r.d.c.d.c.d.c.d.#.#",
".E.E.D.E.E.E#B#B#r#r#r.d...................c#g#..9.8.r...................z.F.L.F.w.d.d.d.c.d.c.c.#.#",
".E.E.E.D.E.E#k#x#l#r#l.d...................##f#f.U.H.....................z.L.F.L.k.d.d.d.c.c.c.a.#.#",
".D.E.E.D.E.D.Z#H#r#l#l.x.....................L#e.U.j.....................z.L.F.L.k.c.d.i.d.d.#.#.a..",
".D.E.D.E.D.D.K#H#s#d#r.0.......................#.#.....................c.E.L.F.L.j.i.j.d.d.c.d.#.#.a",
".D.E.D.E.D.y.D#k#H#C#H#B.c.............................................j.F.K.L.R.j.d.j.d.c.d.c.c.a.#",
".D.D.D.y.D.D.y.K#I#N#N#I#j...................F.6.Z.d.................#.z.K.Q.R.K.j.i.j.i.d.d.c.a.#.a",
".D.y.y.y.D.y.y.y#r#M#M#H#C.c...............c#c.7.6.Q.................w.E.L.Z.R.w.d.j.j.i.j.d.c.b.#.a",
".y.y.y.x.y.x.y.C.Q#M#N#H#C#k.#.............c#d#c#b.Z...............d.E.z.K.R.E.j.i.j.d.j.d.d.d.b.d.a",
".w.w.w.w.w.w.r.q.y#B#M#H#C#C#m.#.............F.Z.R.c.............d.F.K.F.L.R.k.d.j.d.i.d.d.d.e.d.d.b",
".w.r.r.k.q.j.j.j.k.D#k#y#y#s#m.1.d.............c.#.............w.L.Q.Y.P.Y.y.c.d.i.j.j.d.d.d.e.d.d.b",
".k.k.q.q.j.j.i.d.j.d.w.8#m.8#e#e#m.L.......................d.K###a#a#a.Y.x.i.d.c.d.d.i.d.d.d.d.e.d.d",
".k.q.k.p.j.d.j.d.d.d.j.A.2.8.8#m#e.7.L.d.#...........#.d.w.F.P#a#i#i##.P.i.i.c.c.c.d.d.d.d.e.d.d.d.b",
".q.k.q.q.j.i.d.j.d.d.j.j.t.X.2.2.U.S.z.E.z.E.E.E.F.E.F.K.F.J.Y#a#i##.D.i.c.c.#.#.#.c.d.d.d.c.d.b.d.c",
".k.q.q.q.j.k.j.d.j.d.j.f.k.m.O.I.v.u.E.u.z.t.E.F.K.E.K.E.K.E.P###a.y.i.c.#.#.........c.c.d.d.c.d.d.d",
".w.k.q.q.q.q.q.j.k.k.j.k.f.k.f.h.m.m.t.t.t.E.E.F.J.K.J.K.E.K.K.D.j.c.c.c.#...........#.c.a.c.e.c.d.c",
".w.w.r.q.q.q.q.q.q.w.k.k.k.f.e.e.b.e.r.t.y.E.E.J.E.K.E.J.E.q.d.c.c.c.a.#.#...........#.#.c.d.c.d.d.d",
".x.r.q.q.q.q.w.w.w.x.r.k.k.f.e.b.a.a.a.d.d.i.p.p.j.j.j.d.c.c.c.c.c.#.#.#.#.............#.c.a.c.d.d.i",
".x.s.x.q.q.w.w.x.x.w.w.r.k.k.e.a.a.a.a.#.c.c.c.c.c.c.c.c.d.c.c.c.a.#.a...#.............#.#.c.d.c.d.j",
".s.y.y.w.w.w.x.w.x.w.w.r.k.e.b.a.a.#.a.a.#.c.c.c.c.d.c.d.#.c.a.#.a.#.#.#.#.............#.#.c.c.d.d.i",
".y.y.y.y.y.x.x.x.x.q.w.k.d.e.a.#.#.a.#.#.c.c.c.c.d.c.c.c.c.c.a.#.a.#.#.#.#.#.......#.#.#.#.a.#.c.d.c",
".y.s.y.D.y.x.x.x.p.x.p.j.c.b.a.#.a.#.a.#.c.a.c.d.c.d.c.d.a.c.a.#.#.#.#.#.#.#.#.#.#.#.#.#.#.#.#.#.c.c",
".s.y.y.D.J.C.C.p.C.p.q.i.c.a.a.a.#.#.a.#.c.c.d.c.c.d.c.c.a.#.#.a.#.#.#.#.a.#.a.#.a.#.a.#.#.#.a.#.#.#",
".y.y.y.D.D.D.C.p.x.q.o.d.d.d.a.a.a.a.#.d.c.d.c.d.c.c.d.a.c.a.#.#.a.#.a.#.#.a.#.a.#.c.#.#.#.#.#...#.#",
".y.y.D.D.D.C.C.x.p.p.j.p.j.d.d.c.d.c.d.d.d.i.i.d.d.c.c.c.a.c.a.#.a.#.#.a.#.a.#.a.#.c.#.#...#........",
".y.y.y.y.x.y.x.p.p.q.q.q.p.d.k.k.j.d.i.i.j.i.d.d.d.d.c.d.a.c.a.c.a.#.a.#.a.#.a.#.c.c.#.............."
};
