/* XPM */
static char *buttonSettings[] = {
/* width height num_colors chars_per_pixel */
"    57    54      117            2",
/* colors */
".. c #000000",
".# c #080010",
".a c #080018",
".b c #080021",
".c c #100010",
".d c #100018",
".e c #100021",
".f c #100029",
".g c #100031",
".h c #180021",
".i c #180029",
".j c #180031",
".k c #180039",
".l c #18004a",
".m c #180052",
".n c #180821",
".o c #210029",
".p c #210031",
".q c #210039",
".r c #210042",
".s c #21004a",
".t c #210052",
".u c #21005a",
".v c #210063",
".w c #210829",
".x c #210831",
".y c #290031",
".z c #290039",
".A c #290042",
".B c #29004a",
".C c #29005a",
".D c #290063",
".E c #290831",
".F c #310039",
".G c #310042",
".H c #31004a",
".I c #31005a",
".J c #310063",
".K c #31006b",
".L c #310073",
".M c #310084",
".N c #390042",
".O c #390052",
".P c #39005a",
".Q c #390063",
".R c #39006b",
".S c #390073",
".T c #39007b",
".U c #390084",
".V c #420052",
".W c #420063",
".X c #42006b",
".Y c #420073",
".Z c #42007b",
".0 c #420084",
".1 c #42008c",
".2 c #4a0063",
".3 c #4a006b",
".4 c #4a0073",
".5 c #4a007b",
".6 c #4a0084",
".7 c #4a008c",
".8 c #4a0094",
".9 c #4a00a5",
"#. c #520063",
"## c #52006b",
"#a c #520073",
"#b c #52007b",
"#c c #520084",
"#d c #52008c",
"#e c #520094",
"#f c #52009c",
"#g c #52085a",
"#h c #5a006b",
"#i c #5a0073",
"#j c #5a007b",
"#k c #5a0084",
"#l c #5a008c",
"#m c #5a0094",
"#n c #5a009c",
"#o c #5a00ad",
"#p c #5a00b5",
"#q c #63007b",
"#r c #630084",
"#s c #63008c",
"#t c #630094",
"#u c #63009c",
"#v c #6300a5",
"#w c #6300ad",
"#x c #6300b5",
"#y c #6b008c",
"#z c #6b0094",
"#A c #6b009c",
"#B c #6b00a5",
"#C c #6b00ad",
"#D c #6b00b5",
"#E c #6b00c6",
"#F c #6b00ce",
"#G c #73008c",
"#H c #730094",
"#I c #73009c",
"#J c #7300a5",
"#K c #7300ad",
"#L c #7300bd",
"#M c #7300c6",
"#N c #7b00a5",
"#O c #7b00ad",
"#P c #7b00b5",
"#Q c #7b0894",
"#R c #8400ad",
"#S c #8400b5",
"#T c #8400bd",
"#U c #8400c6",
"#V c #840894",
"#W c #8c00b5",
"#X c #8c00c6",
"#Y c #9c00c6",
/* pixels */
".a.a.a.c.a.c.a.#.#.a.a.c.d.d.e.e.i.i.j.j.A.A.A.o.o.e.e.e.e.i.i.j.j.p.p.z.z.z.A.A.A.q.q.q.q.q.A.A.A.r.A.j.p.p.p.j.j",
".#.a.c.c.d.d.c.a.#.c.d.d.d.e.d.i.i.i.j.q.A.H.G.o.o.i.i.i.f.i.j.j.j.p.p.p.z.p.A.p.j.A.q.q.r.q.A.q.A.q.A.j.A.j.p.j.j",
".#.a.a.c.d.d.d.c.c.a.a.a.d.d.e.e.i.f.j.j.p.A.p.o.o.i.f.i.i.f.j.j.p.p.p.z.p.p.A.p.q.q.q.r.r.A.A.p.A.j.p.A.o.j.j.j.j",
".#.a.a.d.d.e.h.d.a.#.#.#.d.d.d.e.e.f.i.j.i.i.i.i.i.i.i.i.j.j.i.j.p.p.p.p.p.A.p.A.A.A.A.A.A.A.z.A.p.A.j.p.j.j.j.p.j",
".a.a.c.d.e.d.d.d.d.c.c.d.d.i.q.B.C.C.t.j.f.f.i.f.i.f.i.j.j.j.C.4#j#b.2.A.p.p.j.j.p.A.A.A.G.G.G.A.A.p.A.j.p.j.j.p.j",
".a.d.d.e.d.e.d.e.c.a.h.d.o.C.J.J.X.0.0.K.k.i.f.f.f.i.j.i.r.L#e#u#t#z#t#k.O.p.p.j.A.j.A.G.G.A.G.G.z.p.j.j.j.o.i.o.o",
".d.d.d.d.e.d.e.d.d.a.d.A.Q.Q.W.I.P.X.0.U.U.s.f.i.i.j.j.t.1#e#e.X.O.W#a#t#B.Q.A.j.p.A.A.A.z.z.z.z.p.A.o.j.j.o.f.e.i",
".d.d.e.d.e.d.d.e.d.d.p.W.W.V.p.e.o.i.A.L.U.M.r.j.j.j.r#e#e.6.d.......#.Q#B#C.Y.A.A.p.A.p.p.p.A.p.A.j.j.p.j.o.e.i.e",
".d.e.e.e.d.e.e.e.e.o.2#b##.o.o.j.p.j.o.q.M.9.9.A.j.p.5#m#l.d.............X#C#D.O.A.A.A.A.j.A.j.A.j.p.q.j.j.i.e.e.d",
".d.e.e.e.e.e.e.o.d.H#k#r.A.o.P#l#d#c.X.j.r#o#M.W.p.O#I#t.a................#m#L#d.A.A.q.q.q.j.j.j.p.q.j.p.j.i.e.e.e",
".d.d.o.e.o.d.e.e.o.3#t.W.o.O#l#d#l#m#m.O.A#m#X#i.z.2#H.2...................P#L#u.q.A.q.q.j.j.j.j.p.j.A.j.j.o.e.e.d",
".a.d.e.e.e.e.o.o.o#a#H.O.o.3#m#l#d#l#v.4.A#r#Y#q.o###z.p...................r#D#v.A.q.j.j.j.j.j.j.p.p.j.p.p.j.e.e.d",
".a.a.d.e.o.d.e.o.p#j#I.O.o.3#l.6#c#c#K#b.p#z#Y#q.z.2#z.G...................A#x#n.A.j.j.i.i.i.i.j.j.p.A.p.A.j.o.e.d",
".#.#.a.d.e.e.o.o.o.3#z#a.o.A.5.5.5#c#B.O.A#N#Y#h.o.2#H#i...................S#x.7.j.j.j.i.i.e.i.e.j.p.j.A.A.A.j.i.d",
".#.#.a.d.e.e.e.e.o.H#r#k.H.o.A.Y#b.5.O.p.W#R#N.N.p.G#V#Q.G...............a#n#x.X.j.j.i.e.i.i.e.o.i.e.o.A.p.A.p.o.i",
".#.#.c.d.d.e.d.d.d.e.H#a#a.A.e.o.j.o.i.W#S#N##.z.o.z#g#V#I.A...........o.8#p.9.A.o.j.i.i.e.i.i.e.o.e.o.A.p.A.p.p.o",
".a.c.d.d.d.d.d.d.d.d.d.P.X.O.I.r.A.A.3#A#O#r.z.o.z.o.z#q#H#z.3.o.a.o.5#E#x#o.r.q.j.j.i.e.i.e.o.i.i.i.o.j.A.z.p.o.o",
".c.d.d.d.d.d.d.d.d.d.d.e.B.P.Z.Z.5#c#l#z#a.A.y.p.y.o.p.G#a#s#s#c#l#w#M#F#o.O.A.j.p.j.o.i.e.i.e.i.j.j.j.A.j.A.z.o.e",
".d.h.d.d.d.d.d.d.a.a.a.a.d.i.C.Y.5#a.W.A.p.p.p.z.p.z.o.p.p.A.W#c#u#w#e.X.r.r.A.A.p.p.j.o.j.o.j.j.j.A.j.A.p.A.p.o.o",
".d.d.e.d.d.d.d.a.a.a.a.a.a.d.e.o.j.o.o.o.p.z.p.p.A.z.o.p.p.p.p.p.A.A.q.r.A.r.A.z.z.p.p.p.j.p.A.j.p.A.A.A.A.p.A.o.h",
".d.d.d.e.e.d.d.d.d.d.a.a.d.d.e.i.i.i.o.j.p.z.p.p.p.p.z.p.p.p.p.p.j.j.r.r.r.A.z.A.z.A.p.p.A.j.p.q.j.A.A.A.A.A.A.o.o",
".d.d.e.d.e.e.e.e.e.e.i.i.i.i.i.i.j.j.o.p.z.z.z.p.p.p.A.p.A.p.A.p.r.r.A.r.B.A.G.A.A.z.p.p.p.p.q.q.p.A.A.A.A.A.z.o.h",
".e.e.d.e.e.i.i.e.i.r.T.T.L.T.L.Z.6.5#k#k#s#z#u.H.p.W#B#v#v#B#v#u#B#D#x#D#L#L#T#j.A.p.A.j.A.j.p.A.j.A.z.A.A.z.p.o.o",
".n.o.e.o.i.i.i.i.i.B.U.U.T.M.T.6.6.X.4.5#b#c#c.B.o.I#v#w#w#B#B#B#x#x#E#M#L#T#U#b.p.p.j.p.p.p.A.j.p.A.A.z.p.A.z.o.e",
".w.w.A.j.p.q.j.j.i.C.1.1.r.r.r.r.A.o.i.j.j.P.J.q.e.r.6#m.Q.Y.O.O.I.J.I.X#k#B#T.4.j.o.j.o.o.j.p.p.A.p.A.p.A.p.A.e.i",
".w.E.E.A.j.A.j.p.j.C.1.U.i.i.j.o.e.d.d.d.e.B.D.j.e.r.L.J.j.Z.r.q.j.q.r#v#A#A#U.4.o.j.p.i.i.j.j.o.d.o.A.p.A.p.p.o.f",
".w.E.A.j.A.p.p.A.o.C.1.U.o.j.j.j.i.e.d.d.e.B.D.k.e.r.K.t.e.j.K.r.j.k.S.Z.A#l#T#b.A.A.p.A.j.j.i.d.d.d.o.j.p.p.A.i.e",
".E.x.j.p.A.p.p.j.p.O.1.0.j.o.j.p.p.o.e.d.e.B.D.k.e.r.K.u.e.e.i.v.g.t.t.i.o.5#P#s.A.G.G.A.r.j.i.d.d.d.d.e.o.o.j.o.i",
".p.p.p.p.p.j.p.o.o.C#l.7.p.j.p.A.o.j.i.i.i.u.K.k.e.r.L.C.e.e.b.k.D.m.d.i.i.Y#T#s.A.G.G.G.A.q.i.e.d.d.d.e.e.o.o.e.o",
".o.j.o.j.j.o.o.j.o.O#m#d.p.p.p.j.j.o.o.o.i.J.T.B.e.s.L.D.e.a.b.t.l.t.k.e.o.4#T#y.A.G.G.A.A.o.i.e.e.e.e.d.e.e.e.p.j",
".o.o.o.i.o.o.i.o.o.O#d#b.o.o.j.p.o.o.i.o.i.Y#d.C.i.B.L.D.e.e.s.l.e.q.R.j.o.5#X#z.A.G.G.A.o.j.i.e.e.e.e.e.o.d.o.j.p",
".e.i.i.i.i.i.o.i.o.H.2.P.e.e.o.o.i.o.j.o.j.Y#e.I.j.u.T.D.f.u.C.d.e.e.p.Y.I#m#X#s.G.A.G.A.o.i.e.i.e.e.o.d.e.o.e.o.o",
".d.e.i.i.i.i.e.d.d.p.H.O.d.e.o.o.o.o.o.o.o.5#u.I.j.I.1.L.j.P.e.e.i.e.i.B.Z#B#X#s.A.G.z.o.i.e.e.e.e.o.d.e.o.d.o.i.p",
".d.d.e.e.e.e.c.c.a.h.G.O.V.N.O.V.W.2.2#####t#u.P.p.J#e#e.X.Q.Q.Q.P.J.I.3#k#L#X#s.G.A.p.i.e.e.e.e.o.d.o.d.o.e.o.j.p",
".d.d.e.e.o.c.a.#.c.h.G.V####.3.2###r#G#G#I#J#v.Q.p.X#n#f#n#m#l#m#e#m#n#W#Y#U#X#z.A.G.p.e.e.e.e.o.d.e.o.e.o.p.p.p.p",
".d.d.d.d.d.c.#.#.#.c.o.p.G.A.G.G.G.G.O.V#..W.W.A.p.B.X.X.Q.P.P.P.Q.P.2#h#j#i#s.3.G.A.A.o.d.e.e.d.o.e.o.o.p.p.p.p.j",
".d.d.d.o.c.d.c.c.c.a.c.c.d.o.d.o.d.o.h.o.p.p.p.j.p.p.j.p.p.p.p.p.p.p.y.F.G.A.G.H.G.A.A.r.j.o.e.o.e.o.o.A.p.z.p.p.p",
".d.d.o.c.o.d.c.c.a.#.c.a.c.d.h.d.o.d.h.o.p.p.p.p.j.j.j.p.j.o.p.p.p.p.z.z.z.A.G.H.A.B.A.H.A.o.e.o.e.p.p.p.p.p.p.j.j",
".d.d.o.d.h.h.d.d.a.#.a.#.a.#.a.d.e.o.d.o.o.z.p.o.o.o.i.o.o.o.j.o.p.o.o.z.A.p.A.B.B.A.A.A.r.j.i.e.o.o.j.p.A.p.j.A.j",
".d.o.d.o.d.e.e.d.a.#.#.#.#.#.a.a.d.e.o.d.o.o.o.e.o.e.e.o.e.o.e.o.o.o.o.z.o.A.A.A.A.r.A.A.A.A.p.A.p.A.p.A.o.j.p.j.p",
".e.d.e.d.e.o.d.e.d.d.a.a.#.#.a.a.d.e.d.e.e.e.d.o.d.e.e.h.d.e.h.o.e.o.o.o.o.o.j.A.j.A.j.A.A.A.A.A.A.A.A.p.j.j.j.p.j",
".e.e.e.e.e.e.e.o.e.e.e.d.a.#.#.d.e.e.e.o.d.o.e.o.d.d.d.o.d.d.e.d.o.d.o.o.o.j.j.p.A.j.A.j.A.A.A.A.A.A.A.j.p.j.j.p.q",
".e.o.e.e.o.e.o.e.e.o.e.d.d.d.d.e.e.e.e.e.o.d.e.e.d.h.d.d.d.d.h.d.d.o.d.e.o.i.j.j.p.q.j.j.o.q.r.A.r.r.A.j.j.j.j.j.p",
".o.e.o.e.i.e.e.o.e.o.e.e.i.e.e.e.e.o.e.o.d.e.o.d.e.h.d.o.d.d.e.d.e.d.d.e.e.i.o.j.j.p.j.j.i.j.j.j.q.q.q.j.j.j.j.p.q",
".e.o.i.i.e.o.e.o.e.o.e.o.e.i.e.o.e.e.o.e.e.o.d.e.h.d.o.d.e.e.d.e.d.e.d.d.e.o.i.j.p.j.p.j.i.f.e.i.f.f.i.j.j.j.j.j.p",
".o.i.i.i.e.o.e.e.o.d.e.e.e.o.i.i.i.e.e.o.e.e.o.d.d.e.d.d.e.d.d.d.e.d.a.d.e.i.j.j.A.j.p.j.i.i.f.e.e.e.f.j.j.j.j.j.p",
".i.e.o.e.o.d.o.d.e.o.e.e.o.e.o.i.i.i.o.e.o.e.e.d.e.d.e.o.e.i.e.e.a.d.a.a.e.o.o.j.p.j.A.o.i.i.e.e.e.a.e.j.j.j.j.j.p",
".e.o.e.e.e.e.e.e.d.e.e.e.e.o.i.i.i.e.e.o.e.o.d.e.o.d.e.o.j.i.j.e.d.e.d.e.o.i.i.j.p.p.j.j.i.i.e.e.e.e.e.j.j.j.j.j.p",
".e.e.o.e.e.e.d.e.e.d.e.d.e.i.i.i.i.i.e.e.o.d.e.d.e.d.e.o.j.o.i.i.i.i.o.i.i.o.o.i.o.i.i.o.i.e.e.e.e.d.i.j.j.j.j.q.j",
".e.o.e.e.e.e.d.e.d.e.d.d.d.d.i.i.i.e.o.e.e.d.d.o.d.e.o.i.j.i.j.j.o.i.o.i.o.i.i.o.i.i.i.i.o.e.o.d.e.e.e.j.j.j.A.j.j",
".e.e.e.e.e.e.e.d.e.d.d.a.a.a.e.i.i.e.o.d.e.d.d.d.e.o.i.o.j.j.o.i.i.i.i.o.i.o.i.i.o.i.i.e.o.d.o.d.e.e.e.j.A.A.A.j.p",
".e.e.e.e.e.e.d.e.e.e.d.d.e.d.d.e.e.o.d.e.e.d.d.o.d.e.o.i.o.j.i.i.e.e.o.i.o.i.i.i.j.i.i.i.e.o.d.e.e.e.o.j.A.A.A.r.A",
".o.e.o.e.e.e.e.e.e.e.d.e.d.e.d.e.d.o.e.h.d.d.e.o.e.o.i.o.o.i.i.e.e.e.e.o.i.o.i.o.i.i.i.i.e.e.e.e.e.e.j.A.A.A.B.A.A",
".o.e.o.o.e.o.e.o.d.e.d.e.d.d.e.o.e.o.o.d.o.d.e.e.o.e.o.i.o.i.o.i.e.e.o.e.o.o.i.i.j.j.i.i.o.e.e.e.i.o.q.B.A.B.A.B.r"
};
