/* XPM */
static char *buttonView[] = {
/* width height num_colors chars_per_pixel */
"    51    42      117            2",
/* colors */
".. c #000000",
".# c #000008",
".a c #080010",
".b c #080018",
".c c #100018",
".d c #100021",
".e c #100029",
".f c #180021",
".g c #180029",
".h c #180031",
".i c #180039",
".j c #180042",
".k c #210031",
".l c #210039",
".m c #210042",
".n c #21004a",
".o c #210052",
".p c #21005a",
".q c #290031",
".r c #290039",
".s c #290042",
".t c #29004a",
".u c #290052",
".v c #29005a",
".w c #310042",
".x c #31004a",
".y c #310052",
".z c #31005a",
".A c #310063",
".B c #31006b",
".C c #390042",
".D c #39004a",
".E c #390052",
".F c #39005a",
".G c #39006b",
".H c #390073",
".I c #39007b",
".J c #39008c",
".K c #42005a",
".L c #420063",
".M c #42006b",
".N c #42007b",
".O c #42008c",
".P c #420094",
".Q c #4200a5",
".R c #4a0052",
".S c #4a005a",
".T c #4a0063",
".U c #4a006b",
".V c #4a0073",
".W c #4a007b",
".X c #4a0084",
".Y c #4a008c",
".Z c #4a009c",
".0 c #4a00ad",
".1 c #52006b",
".2 c #520073",
".3 c #52007b",
".4 c #520084",
".5 c #520094",
".6 c #52009c",
".7 c #5200ad",
".8 c #5200b5",
".9 c #5a0073",
"#. c #5a007b",
"## c #5a0084",
"#a c #5a008c",
"#b c #5a0094",
"#c c #5a009c",
"#d c #5a00a5",
"#e c #5a00ad",
"#f c #5a00b5",
"#g c #5a00bd",
"#h c #5a00c6",
"#i c #63007b",
"#j c #630084",
"#k c #630094",
"#l c #63009c",
"#m c #6300a5",
"#n c #6300ad",
"#o c #6300b5",
"#p c #6300bd",
"#q c #6300c6",
"#r c #6300ce",
"#s c #6b008c",
"#t c #6b0094",
"#u c #6b009c",
"#v c #6b00a5",
"#w c #6b00ad",
"#x c #6b00b5",
"#y c #6b00bd",
"#z c #6b00c6",
"#A c #6b00ce",
"#B c #730094",
"#C c #73009c",
"#D c #7300a5",
"#E c #7300ad",
"#F c #7300bd",
"#G c #7300c6",
"#H c #7300ce",
"#I c #7300d6",
"#J c #7b00ad",
"#K c #7b00bd",
"#L c #7b00c6",
"#M c #7b00ce",
"#N c #8400a5",
"#O c #8400b5",
"#P c #8400bd",
"#Q c #8400ce",
"#R c #8c00c6",
"#S c #8c00ce",
"#T c #8c00d6",
"#U c #9400ce",
"#V c #9400d6",
"#W c #9c00d6",
"#X c #a500d6",
"#Y c #a500de",
/* pixels */
".g.e.e.e.e.g.k.k.k.g.f.c.a.a.a.c.g.e.e.c.e.c.e.e.f.e.g.r.r.r.r.k.k.k.k.k.k.k.k.k.l.s.s.r.s.l.l.l.l.h.k",
".e.e.c.g.e.e.g.f.g.f.c.a.a.a.a.a.c.f.f.f.e.e.c.e.f.k.l.r.w.w.w.r.k.k.k.k.l.l.l.s.s.x.s.s.s.m.l.l.l.l.l",
".c.e.e.e.e.f.f.f.e.c.c.c.a.a.a.c.c.e.f.e.f.f.g.f.k.l.w.s.w.w.w.w.l.k.l.k.k.l.l.t.x.x.t.s.m.s.m.m.m.m.m",
".e.c.f.e.f.f.g.f.f.f.e.c.e.c.e.f.e.f.e.f.g.k.g.k.s.s.s.w.C.D.x.w.s.k.l.k.l.l.l.s.x.t.t.m.m.m.s.m.m.s.s",
".g.g.e.f.f.g.e.f.g.e.f.g.e.c.e.f.c.e.c.g.g.l.r.s.x.x.x.D.D.x.x.s.r.l.k.l.k.l.l.s.s.t.t.m.m.m.m.m.s.n.s",
".g.g.g.g.f.g.f.e.f.e.f.g.g.e.f.e.f.f.e.f.k.l.x.E.x.D.D.D.D.x.x.s.s.k.g.k.k.k.k.l.l.n.m.n.m.n.m.s.n.s.t",
".g.g.g.g.g.f.g.f.g.f.g.g.e.e.f.f.f.f.f.g.k.l.x.D.D.D.D.D.w.w.s.s.l.g.e.e.e.f.k.l.l.m.m.m.m.n.s.n.s.n.s",
".k.k.g.g.g.g.g.e.f.g.g.l.F.M.U.U.U.E.l.g.k.r.s.w.D.C.D.w.q.s.L.u.s.k.e.f.c.e.f.k.l.i.l.m.n.s.n.s.s.s.n",
".k.k.k.k.g.g.g.f.g.k.u.W.4.4#.#..3.W.V.F.l.k.r.r.r.r.q.w.D.4#k.X.W.U.y.l.k.g.k.k.k.l.i.i.m.m.s.n.s.n.s",
".k.k.k.k.g.k.g.g.t.H.X.N.4###j#t#k#a#a#a.W.x.k.k.k.k.w.2.3.V.V.3.3.V.M#a##.F.l.k.k.h.h.h.l.i.m.s.n.s.t",
".k.l.k.g.g.g.l.z.X.X.X.X.L.s.r.w.L.X#m#m#v#j.r.k.k.C#..3.3.W.U.F.L.W.9#u#C##.W.x.k.g.g.g.k.i.l.s.t.n.s",
".k.k.k.g.k.l.N.Y.Y.X.I.i.#.........a.G#e#m#C.D.k.r#j#j.4.3.r.a...a.f.D#B#N#t#..3.K.g.g.g.e.g.i.m.m.s.t",
".k.k.g.k.x.X.Y.Y.Y.A.b.........#.a.d.l.B#a.M.k.r.2#u#j.3.g.............c.w#s#i.9.V.L.k.e.e.e.g.s.m.m.s",
".k.g.g.x#j#a.Y.Y.t.#.......b.k.l.m.i.l.l.m.l.k.l#j#u#a.r...................c.T.9.2.U.U.l.e.e.g.l.m.s.m",
".g.g.s.3#a#a.W.l.#.#.a.g.l.l.l.j.l.m.l.i.k.l.k.k.F.4.L.h.g.g.h.l.g.f.a.......a.C.2.U.U.G.k.d.h.l.l.m.m",
".g.g.M.4.4.V.g.a.f.k.h.k.m.A.H.P.Z.O.A.m.i.h.h.h.k.k.k.m.v.P#p#H#L#E.2.x.k.f.a...k.1.M.M.G.g.h.i.i.m.m",
".g.g.X.4.V.r.f.k.g.g.l.A.O#f#f#g#p#g#g.Y.l.g.e.g.k.h.n#e#H#I#M#M#Q#S#S#P#j.D.q.k.k.w.3.W.O.k.h.i.i.m.m",
".g.g.F.L.x.e.f.k.k.E#..Y.6.Y.H.t.m.A.7.O.t.e.d.g.h.l.O#H#H.N.k.s#m#S#P#S#R#J.K.r.q.k.K#a.X.k.h.i.m.l.m",
".g.g.e.g.e.f.f.k.1#j#k#a.y.B.N.t.....g.v.p.l.d.g.h.u#o#H.A.....H#K#U#u.U#P#R#O#j.w.k.k.s.l.k.l.l.s.n.s",
".g.e.c.e.c.e.k.T###s.L.c.l#e#f.7.t.....d.o.t.g.g.k.3#F#o.a...A#Q#V#X#S.k.c#j#P#E#t.x.k.l.l.s.t.x.t.t.s",
".g.e.a.c.c.l.U#j#j.k...a#k#x#o#f#f.c...#.A.A.m.g.k#D#R.L...##d#T#V#X#V.1...#.y#E#P#J.L.l.s.y.F.y.u.x.s",
".e.c.b.c.l.y.M#j.g.....l#o#g#g#p#p.x....#c#o.A.g.r#E#P.k...a#o#V#V#V#V#u.#.....5#G#G#y.X.y.F.E.F.y.u.x",
".f.c.a.e.y.G#a#k.f.....x#g#h#h#q#A.B....#n#H.W.l.x#J#P.e...a#o#V#S#V#V#m.a...a#x#M#S#V#U.U.F.E.F.F.u.t",
".g.e.c.g.F.G.5#w.M.....l#h#q#q#r#A.u...##p#H.W.s.x#J#S.r....#n#V#T#V#V.W.....e#Q#Q#j#D#t.K.E.F.u.u.x.s",
".k.g.k.g.l.l.G#x#m.a...a#f#r#q#r#q.b...a#q#p.G.l.s#w#R.4.....F#V#V#V#T.k.....L#Q#F.w.x.x.E.E.y.y.u.s.m",
".k.k.h.k.l.l.y#F#G.l.....h#r#r#A.t.....t#r#e.x.s.l.4#S#Q.k.....u#L#F.l.....e#L#S#l.x.x.x.E.E.y.x.s.m.i",
".k.k.k.l.l.s.s.5#H#k.a.....g.u.h.....d.8#r.X.l.l.s.u#L#V#w.#.....#.#.....#.5#Q#Q.L.w.x.w.x.x.x.s.l.h.l",
".k.k.l.l.l.s.s.F#M#M#b.g...........g.7#h.0.u.i.l.s.s.N#W#Y#P.s.#.a...a.l#e#G#H.V.s.s.s.s.s.x.s.l.h.k.h",
".k.k.k.l.l.s.l.s.W#F#w#E#c.G.A.A.J#h#h.0.v.i.i.l.m.l.t#d#S#V#S#M#F#p#y#H#z#y.X.l.s.s.r.r.s.l.k.l.k.g.k",
".g.k.k.k.l.s.s.s.s.L#b#x#P#M#p#h#g#g.Q.v.h.i.i.m.l.m.m.t.X#G#H#M#z#z#G#o.6.A.k.k.l.l.l.l.k.k.k.k.g.g.g",
".g.k.k.l.l.s.s.s.l.s.s.L.V.V.H.H.A.A.t.h.i.i.l.j.j.m.m.s.t.y.G.L.A.L.A.F.m.h.k.h.g.k.h.k.k.k.k.g.k.g.g",
".g.k.k.l.l.s.l.s.l.l.l.l.l.s.l.l.s.l.l.i.i.m.j.l.m.m.m.t.t.s.s.l.s.l.l.k.l.h.i.k.h.k.h.h.h.h.g.k.g.g.g",
".g.k.l.s.l.s.l.s.l.s.l.l.s.s.s.s.m.l.m.m.i.m.i.m.j.m.n.t.t.s.s.s.l.l.l.h.h.l.h.h.l.l.i.k.h.k.h.g.k.g.g",
".k.l.s.s.s.s.l.s.l.l.l.s.s.t.t.s.s.m.s.m.m.m.m.m.n.m.t.x.s.s.s.l.s.l.l.h.l.h.l.i.l.l.l.l.k.h.k.g.g.g.g",
".s.s.s.s.s.l.s.l.s.l.l.s.t.s.t.x.t.t.t.s.m.t.t.u.x.u.x.u.s.s.l.s.l.l.l.h.l.l.l.l.l.l.l.l.i.k.h.g.k.g.g",
".s.w.s.s.s.s.l.l.l.m.m.s.t.t.x.t.x.x.x.u.y.E.E.F.E.K.E.x.x.s.s.l.m.l.i.l.i.l.l.m.l.l.l.l.l.l.k.l.k.k.g",
".s.s.s.s.s.l.l.l.l.l.i.s.t.t.x.x.u.x.x.E.K.K.S.K.S.S.K.E.x.x.x.l.s.m.s.m.t.t.t.m.s.l.l.l.l.l.l.l.l.k.g",
".w.w.s.s.s.r.k.k.h.h.g.m.x.u.u.y.x.y.y.E.K.K.K.S.K.S.K.S.D.x.x.s.m.t.u.F.z.u.z.t.l.s.s.r.l.k.l.k.l.l.k",
".C.C.w.s.r.l.k.g.g.g.h.m.u.u.y.E.F.y.E.K.K.K.K.S.K.S.K.K.D.x.u.x.u.u.u.u.z.u.u.x.s.r.r.l.q.l.l.k.l.k.k",
".C.C.w.r.r.k.k.g.e.e.g.l.t.u.F.F.F.F.F.K.K.K.R.K.S.S.S.K.R.y.y.y.F.A.F.F.z.u.y.u.x.s.r.r.l.r.l.k.k.k.h",
".w.C.w.r.r.l.k.g.g.e.e.l.t.u.y.F.K.F.E.K.K.K.K.E.K.K.K.K.E.E.F.F.A.L.A.F.z.u.u.y.x.s.s.r.r.k.k.k.g.g.g",
".w.C.C.w.r.r.l.k.i.h.e.m.s.t.F.F.E.K.E.E.E.E.E.y.y.y.y.y.E.F.F.A.L.A.A.y.z.y.z.y.x.l.s.r.k.k.g.g.g.e.e"
};
