/* XPM */
static char *buttonProcessOn[] = {
/* width height num_colors chars_per_pixel */
"    54    42      151            2",
/* colors */
".. c #000000",
".# c #080008",
".a c #080010",
".b c #080018",
".c c #080021",
".d c #100010",
".e c #100018",
".f c #100021",
".g c #100029",
".h c #180018",
".i c #180021",
".j c #180029",
".k c #180031",
".l c #180039",
".m c #210029",
".n c #210031",
".o c #210039",
".p c #210042",
".q c #210052",
".r c #210839",
".s c #290031",
".t c #290039",
".u c #290042",
".v c #29004a",
".w c #310039",
".x c #310042",
".y c #31004a",
".z c #310052",
".A c #31005a",
".B c #310073",
".C c #31086b",
".D c #31105a",
".E c #39004a",
".F c #390052",
".G c #39005a",
".H c #390063",
".I c #39008c",
".J c #42005a",
".K c #420063",
".L c #42006b",
".M c #420073",
".N c #42007b",
".O c #4a006b",
".P c #4a0073",
".Q c #4a007b",
".R c #4a0084",
".S c #4a008c",
".T c #4a0094",
".U c #4a00a5",
".V c #520073",
".W c #52007b",
".X c #520084",
".Y c #52008c",
".Z c #520094",
".0 c #52009c",
".1 c #5200a5",
".2 c #52089c",
".3 c #5a0084",
".4 c #5a008c",
".5 c #5a009c",
".6 c #5a00a5",
".7 c #5a00c6",
".8 c #5a00ef",
".9 c #63008c",
"#. c #630094",
"## c #63009c",
"#a c #6300a5",
"#b c #6300ad",
"#c c #6300b5",
"#d c #6300bd",
"#e c #6300c6",
"#f c #631084",
"#g c #6b0094",
"#h c #6b009c",
"#i c #6b00a5",
"#j c #6b00ad",
"#k c #6b00b5",
"#l c #6b00bd",
"#m c #6b00c6",
"#n c #6b00ce",
"#o c #6b00d6",
"#p c #73009c",
"#q c #7300a5",
"#r c #7300ad",
"#s c #7300bd",
"#t c #7300c6",
"#u c #7300d6",
"#v c #7300ff",
"#w c #7321de",
"#x c #7b00ad",
"#y c #7b00b5",
"#z c #7b00bd",
"#A c #7b00c6",
"#B c #7b00ce",
"#C c #7b00de",
"#D c #7b00e7",
"#E c #7b00f7",
"#F c #7b08d6",
"#G c #8400bd",
"#H c #8400c6",
"#I c #8400ce",
"#J c #8400d6",
"#K c #8400e7",
"#L c #8400f7",
"#M c #8421de",
"#N c #8c00bd",
"#O c #8c00ce",
"#P c #8c00de",
"#Q c #8c00e7",
"#R c #8c00ef",
"#S c #8c00f7",
"#T c #8c08a5",
"#U c #9400c6",
"#V c #9400d6",
"#W c #9400de",
"#X c #9400e7",
"#Y c #9400f7",
"#Z c #9400ff",
"#0 c #9418e7",
"#1 c #9c00ce",
"#2 c #9c00de",
"#3 c #9c00e7",
"#4 c #9c00ef",
"#5 c #9c00ff",
"#6 c #9c29ff",
"#7 c #a500de",
"#8 c #a500e7",
"#9 c #a500f7",
"a. c #a500ff",
"a# c #a508c6",
"aa c #ad00de",
"ab c #ad00ef",
"ac c #ad00ff",
"ad c #ad08e7",
"ae c #b500e7",
"af c #b500ef",
"ag c #b500ff",
"ah c #bd00f7",
"ai c #bd00ff",
"aj c #bd29ff",
"ak c #c600e7",
"al c #c600f7",
"am c #c600ff",
"an c #ce00f7",
"ao c #ce00ff",
"ap c #d600f7",
"aq c #de00ff",
"ar c #ef00f7",
"as c #ef00ff",
"at c #f700ff",
"au c #ff00ff",
/* pixels */
".n.j.j.j.j.j.k.n.n.n.n.t.t.t.o.o.o.o.p.p.p.o.p.p.u.p.n.n.n.n.n.n.p.n.p.n.p.j.j.j.j.j.j.j.j.n.o.n.o.p.o.o.t.p",
".n.n.n.j.k.k.n.n.n.n.t.o.t.t.o.o.o.p.p.o.o.o.o.o.o.o.o.o.n.n.k.k.n.p.n.p.n.n.n.n.n.j.n.j.n.n.o.o.o.p.o.u.u.o",
".n.n.o.n.k.k.n.n.n.n.n.t.n.u.o.p.o.o.o.u.p.t.t.o.o.o.n.p.j.n.n.k.n.n.o.o.t.n.j.n.j.n.j.n.n.o.n.o.o.o.o.o.p.n",
".o.o.n.n.k.n.n.n.n.n.n.o.o.o.o.o.p.u.x.t.t.t.o.o.n.o.n.j.n.k.n.n.n.p.n.n.n.n.j.n.j.n.n.n.o.n.p.n.n.p.n.j.f.f",
".t.o.p.n.n.n.n.n.n.n.n.u.L#t#t.o.t.u.x.x.x.u.t.o.o.n.n.k.n.n.n.n.n.n.n.n.n.n.j.j.j.n.n.n.p.n.n.o.k.c.f.f.f.f",
".t.o.n.k.n.j.n.n.j.n#.afaiagab.n.n.x#1.J.t.t.t.o.n.n.k.j.j.j.k.j.n.o.t.n.f.j.j.n.j.j.k.k.n.n.n.n.j.c.f.f.f.f",
".o.o.p.j.n.j.j.j.j.n#hamamam#8.f.j#gauar#p.o.n.n.n.k.n.j.j.j.H.4#Iab#N.f.h.f.G.n.j.j.j.j.n.n.j.j.f.f.f.f.f.h",
".n.n.n.j.j.j.j.O.o.j.zaqaoaqaq#7#Uapaoasau#V.n.n.n.n.k.j.c.j#a#ta.ac.9.d.f.j#I#m.n.j.j.j.n.j.f.j.h.f.f.f.f.f",
".j.n.j.j.n.j.Aac#B.H#zaqaqasatatataqaqaoao#a.f.j.n.n.k.v.f.f.n.6#I#I#p.t.t.W#P#Z#J.L.j.j.j.j.j.h.f.f.j.j.j.j",
".j.j.n.j.j.j#macagamaoaqaqaqasataqaqaiag#B.d.f.j.k.n.v#L.N.f.q.0#j#r#x#x#y#B#X#5#Z#R.j.j.n.j.j.j.f.j.n.p.n.k",
".n.j.n.n.n.3aiagamaiaqaqaqah#B#Waqai#5#Z#D.c.j.P.n.p#J#Z#K#m#d.U.6#i#q#i#y#B#K#Z##.d.f.h.j.j.n.j.t.o.p.o.p.n",
".j.n.j.n.n.3amamamagamao#i.......fa.#Z#Za.#Pafam.o.Ham#5#o#c.6.0.T.Z###i#t#R#5#5.R.#.f.j.j.n.n.n.n.u.o.p.p.p",
".j.j.n.n.n.n.t#Uamamam.H...........d#E#Z#Za.aiao.O.Maqam#5#e.0.1.p.#...#.p#L#5acai.4#zab.t.j.j.n.n.u.p.o.p.p",
".j.j.n.n.n.n.j#Uaqam#9...............A#S#R#Sacai#z.h.Ranao#S#n.S...........na.amamaoamao.y.j.j.j.n.o.o.p.p.n",
".j.j.o.t.V#q#Naoasam#n...............j#Z#5#Z#5#K#B.d.f#rasag#8.d............#kaoaqaqaqaq.K.h.j.j.n.n.p.j.k.k",
".n.o.t.o#1auataqauaq#D...............o#5#5#5.v.d.f.O##apauam#G...............vasaqaqamam.4.f.f.j.n.n.k.n.k.k",
".o.o.t.n.Waqaqasauaqam.f............#l#5#Y#S.d.a.Qasasauatam#G...............zaqaqam#z.Q.o.h.j.j.n.k.n.k.k.n",
".p.t.o.o.xamamaqataqaqaq.o........#c#S#Z#L#S.6.h.vaqaoasauagad.#............#taqamam.h.a.f.c.j.j.n.p.k.n.k.k",
".o.p.o.t.o#q#j.F#Vatatatau.W.n.v#Jacagagacacam#l.namaqasatagad#T...........vaqaqaga..o.d.f.j.n.n.p.j.n.n.n.k",
".p.u.o.t.t.j.j.h.pauauatauauataqaqaqaoaqaoamam.5.h#Oaa##auamaaaea#.w.d.f#Jamamag#Z#Rac#b.j.n.n.n.n.p.n.n.n.n",
".u.p.u.t.t.o.n.p#baqatauauauauataqaq#8.X#7am#2.h.c.o.j.h.3amaaaeaa#8#Y#Z#Z#5#Y#I#A#I#3#J.j.j.n.n.p.n.p.n.n.n",
".o.u.p.u.p.t.o##aqaqaqasatatauauataq.v.#.h#b.f.d.j.n.n.n.9amakakaa#W#C#J#C#D#B.P#J#V#r.d.f.j.o.o.o.o.o.o.o.n",
".t.u.p.u.u.o.u.u#tasaqat.n.j#xauasaq#H.d.c.j.n.j.n.t.t.3atam#W#Q#J#C#C#F#u#F.p...y#2.n.#.h.j.o.n.t.t.o.t.o.o",
".p.u.u.p.u.u.o.o.n.z#1.O.d.f.yaqaqae#a.W#2al#7.j.n#y.G.yaaam#E.8.j.g.2#M#M#0.t.#.e.j.#.f.h.j.n.n.o.o.o.t.t.t",
".p.u.u.u.p.u.o.p.o.n.j.c.j.j.y#V.O.f.#.Maqaqaa.n.Kauaq.K.j.Q#v.I...a.B#w#6aj#f.d.h.h.f.h.f.j.n.n.n.n.t.t.t.t",
".u.v.p.o.p.o.p.o.p.o.n.n.n.n.j.j.o#l.v.Zacac#Qabaqauauaa.h.f.j.b.d.f.C#M.D.j.h.f.h.f.j.f.j.f.j.f.j.n.n.n.n.t",
".v.v.p.o.o.o.p.n.p.n.o.t.u.t.t.uaaaoama.#S#t.6#Aagaoao.t.f.f.f.a.c.h.j.f.d.b.b.h.f.j.f.j.f.j.f.j.f.j.n.n.n.n",
".v.v.o.o.n.k.n.j.j.k.n.n.t.t.u#yauauaqag#E.7#c#a#s#4a..3.3.K.f.f.j.j.j.f.f.f.i.f.j.j.j.h.f.f.f.f.f.j.j.n.j.n",
".u.p.o.p.k.k.k.j.j.k.n.n.o.u.w.y#qauatai#L.p...f#k#I#Wa.ac#q.f.j.k.p.p.r.j.j.i.j.j.j.h.f.h.f.f.h.f.h.f.j.j.j",
".p.u.p.j.n.k.j.j.j.j.j.n.o.t.u.x.Fataoai.N.......h#t#P#J#4ae.f.j.n.p.o.r.r.i.j.i.m.f.h.f.d.f.d.f.d.f.h.f.h.j",
".p.p.n.n.k.k.k.j.j.j.j.n.o.t.Fapatauaiac.o........#I#P#W#P#y.f.j.n.p.o.n.j.j.j.j.i.f.h.f.d.h.f.d.f.f.f.f.f.f",
".u.p.p.n.n.k.j.k.j.k.n.n.o.t.uarauaqac#Z.T.......o#I#P#W.d.#.f.j.n.o.o.p.j.j.f.i.i.f.h.f.h.f.e.h.f.f.f.d.h.f",
".u.o.o.p.n.k.k.j.k.j.n.p.o.t.oaaasam#5#K#K.Y.j.X#W#W#P#2.z.h.f.n.n.o.o.n.n.j.j.f.f.i.f.i.h.h.h.f.d.f.h.c.f.h",
".p.p.o.n.n.n.k.k.n.n.p.n.o.u.o.O.A.n#l#K#C#K#W#W#4#3#9#9ai.P.f.n.n.o.o.n.p.n.j.n.j.f.n.j.i.h.f.i.h.f.f.f.f.j",
".u.o.o.o.p.n.k.n.k.o.o.p.t.u.o.n.j.f#b#R#Q#P#3#3#W#O#Uao#7.h.f.j.n.n.n.p.n.p.p.n.n.j.n.m.n.m.m.j.i.f.n.j.n.n",
".v.u.o.o.p.n.l.n.p.n.u.o.u.u.t.o.n#t#S#R#J.X#I#4ac.G.d.O.j.e.f.j.n.p.n.n.p.n.p.o.p.n.t.t.t.t.s.t.s.n.n.o.o.o",
".y.y.o.o.o.p.p.p.u.u.u.o.u.u.t.u.u.t.Yag.v.#.Hagam#x.d.f.h.f.n.j.n.n.p.n.p.p.n.p.n.o.t.t.w.t.w.t.w.u.u.u.u.x",
".E.y.p.p.v.v.y.z.v.y.u.u.u.x.u.p.t.o.j.u.h.d.p.4.G.j.h.f.j.n.n.n.n.n.p.n.p.n.o.o.p.j.n.t.t.t.t.t.w.x.x.x.y.u",
".n.j.j.j.j.k.n.n.n.n.t.t.t.t.p.o.o.o.p.o.p.p.u.u.u.u.o.t.n.n.n.p.n.p.n.p.f.j.j.j.j.j.j.n.n.o.o.o.o.u.o.u.x.u",
".n.j.j.j.j.j.k.n.n.n.o.t.t.t.t.p.o.p.p.p.p.o.p.p.u.u.o.n.r.r.j.n.p.n.p.n.o.n.j.n.j.n.j.j.j.n.o.o.o.p.o.t.u.x",
".n.n.n.j.k.k.n.n.n.n.t.t.t.t.o.o.p.p.n.p.o.o.t.o.o.o.n.o.n.n.k.n.n.p.n.p.n.n.n.j.n.j.j.n.n.n.o.n.o.u.p.p.u.u",
".n.n.o.n.k.k.n.n.n.n.n.o.n.u.o.n.o.o.p.u.o.t.o.o.o.o.o.n.n.k.n.k.n.n.p.n.o.n.n.j.n.j.n.j.o.n.o.o.o.o.o.o.t.u"
};
