/* XPM */
static char *buttonSched[] = {
/* width height num_colors chars_per_pixel */
"    51    53      105            2",
/* colors */
".. c #000000",
".# c #080008",
".a c #080010",
".b c #080018",
".c c #100018",
".d c #100021",
".e c #100029",
".f c #180021",
".g c #180029",
".h c #180031",
".i c #180039",
".j c #180042",
".k c #210029",
".l c #210031",
".m c #210039",
".n c #210042",
".o c #210052",
".p c #210831",
".q c #210839",
".r c #290031",
".s c #290042",
".t c #29004a",
".u c #290052",
".v c #290063",
".w c #29006b",
".x c #310039",
".y c #310042",
".z c #31004a",
".A c #310052",
".B c #31005a",
".C c #310063",
".D c #31006b",
".E c #310842",
".F c #390042",
".G c #39004a",
".H c #390052",
".I c #39005a",
".J c #390063",
".K c #39006b",
".L c #390073",
".M c #39084a",
".N c #420052",
".O c #42005a",
".P c #420063",
".Q c #42006b",
".R c #420073",
".S c #42007b",
".T c #420084",
".U c #42008c",
".V c #4a005a",
".W c #4a0063",
".X c #4a006b",
".Y c #4a0073",
".Z c #4a007b",
".0 c #4a0084",
".1 c #4a008c",
".2 c #4a0094",
".3 c #4a009c",
".4 c #4a086b",
".5 c #520073",
".6 c #52007b",
".7 c #520084",
".8 c #52008c",
".9 c #520094",
"#. c #52009c",
"## c #5200a5",
"#a c #5200ad",
"#b c #520873",
"#c c #5a0073",
"#d c #5a007b",
"#e c #5a008c",
"#f c #5a0094",
"#g c #5a009c",
"#h c #5a00a5",
"#i c #5a00ad",
"#j c #5a00b5",
"#k c #5a00bd",
"#l c #5a00c6",
"#m c #5a0894",
"#n c #630084",
"#o c #63008c",
"#p c #630094",
"#q c #63009c",
"#r c #6300ad",
"#s c #6300b5",
"#t c #6300bd",
"#u c #6300c6",
"#v c #6300ce",
"#w c #6b0094",
"#x c #6b009c",
"#y c #6b00a5",
"#z c #6b00ad",
"#A c #6b00b5",
"#B c #6b00ce",
"#C c #7300b5",
"#D c #7300bd",
"#E c #7300c6",
"#F c #7b00bd",
"#G c #7b00c6",
"#H c #7b00ce",
"#I c #7b08c6",
"#J c #8400ad",
"#K c #8400ce",
"#L c #8c00ce",
"#M c #9400ce",
/* pixels */
".m.m.l.g.g.g.g.g.g.g.l.m.m.m.m.n.m.s.m.m.m.f.g.f.e.g.e.g.m.k.m.g.f.c.a.a.a.c.g.f.f.f.d.f.f.g.l.l.g.m.k",
".m.m.m.k.k.l.g.g.m.g.m.m.m.m.n.m.s.s.s.l.g.f.f.d.d.g.d.g.g.f.g.f.c.a.a.a.a.a.c.f.g.f.d.g.g.g.l.l.m.m.k",
".m.m.m.k.g.l.g.m.g.m.m.m.m.m.m.m.m.l.l.g.f.d.d.f.d.g.f.g.f.f.f.f.c.c.a.a.a.c.c.f.g.f.g.g.f.g.l.m.s.r.m",
".m.m.k.m.g.k.g.m.l.m.m.m.l.l.j.t.t.t.v.B.K.J.J.C.A.n.m.g.g.f.f.f.d.f.f.d.f.f.f.f.f.g.g.g.g.l.j.m.m.r.m",
".m.k.m.k.g.l.g.g.l.l.l.m.m.t.w.R.L.C.C.C.C.R.0.S.S.S.Z.Y.t.g.g.f.f.g.d.f.d.f.f.d.d.f.h.l.m.n.s.s.s.s.r",
".m.k.g.g.g.g.l.g.h.h.l.t.Y.S.C.w.D.D.B.C.J.R.7.0.Z.7.6.Z.6.J.m.g.g.g.g.d.f.f.f.f.f.g.g.m.t.y.s.s.s.r.s",
".k.g.c.f.g.g.g.g.g.g.A#q.7.R.D.K.K.u.j.c.j.m.f.m.P.7.6.6.Z.Y.Z.B.l.g.f.g.f.g.f.f.g.g.l.m.s.y.s.s.s.s.m",
".f.c.f.c.f.g.g.g.l.B#f#e.Y.Q.J.m.c.......K.R.c.....a.s.Q.7.Y.S.Z.C.l.g.f.g.f.g.f.g.g.m.m.s.s.x.s.x.s.k",
".c.c.c.f.f.g.g.g.B#e#p.7.Q.m...........C#q#g.6...........g.S.S.0.S.Q.l.g.g.g.f.g.f.g.m.k.m.r.s.m.r.m.g",
".c.c.f.c.f.g.g.t#f#e#o.Z.m...l.n.......R#h#q.7.......c.m...n.K.0.T.Z.J.g.k.k.m.g.g.g.k.m.m.k.m.k.m.k.k",
".c.c.c.f.g.g.l.0#e#e#o.g...c#H#E.u.....S#z#C#e.....#.7.8.B.g.l.S.T.T.7.z.k.m.m.m.m.m.m.k.m.k.m.k.m.k.g",
".c.c.f.f.g.g.K#q#q#p.z......#q#E##.....T#z#z.Z.....I#e.7.n.g.g.j.K.T.T.0.m.l.m.j.m.l.l.m.r.r.m.r.k.k.g",
".c.c.f.g.g.u#q#z#z.I.........f#B#u.c...T#t#s.A...m#e#o.A.g.g.g.g.t.3.3##.S.i.j.l.j.l.l.m.m.r.m.r.m.k.g",
".c.f.d.f.g.Z#r#z#q.c.a.a.......K.R.....T#i#s.A...a.O.P.g.g.g.h.n.t.3#t#u#i.n.j.j.l.j.l.l.l.m.m.r.k.k.g",
".f.d.f.g.m#r#z#C.Z.H#y#e.s.............R###g.z.....g.g.g.g.n.D.3.S.u#t#k#u.D.j.l.j.l.j.l.l.l.m.k.l.g.g",
".f.f.l.l.B#E#D#z.c.f.9#f#g.B...........D#..9.u.....g.g.g.s.7.7.9.C.l.T#t#k.2.j.j.m.j.g.l.h.l.l.l.l.l.l",
".g.g.l.m.0#D#D.1.....#.C#h.8...........K#..1.z.......f.f.s#n.5.n.g.g.u#i#i#i.j.m.l.l.h.e.g.g.l.l.j.m.n",
".k.l.j.m#f#z#r.I.........g.a...........Q.9.S.t.......f.f.g.G.m.k.k.g.t#i#i##.j.l.i.g.c.d.d.g.h.j.m.s.m",
".g.k.m.m#q#A#h.m.......................K.9.S.C.......f.l.f.f.g.k.k.l.t#j#i#a.l.i.g.b.c.d.d.g.l.l.m.m.n",
".f.g.l.l#g#f.Z.f.#.C.Q.R.A.............K.9.S.0.R.D.C.C.P.s.r.O.P.X.G.t#i#i##.j.g.d.b.c.c.d.g.l.m.m.s.m",
".f.g.g.g.R.P.J.m.m#e#h#y#h.............K.8.0.0.C.u.B.I.J.O#c#o#x#J#o.s#z#k#i.j.l.d.c.d.d.g.g.m.r.s.s.s",
".f.f.d.f.J.Q.X.f...s.I.P.s.............C.Z.R.R.u.t.t.u.A.m.z.X.5.5.A.t#k#k#i.m.j.g.h.j.l.l.h.g.s.r.m.s",
".f.d.f.d.A.P.Q.m.....................................#.....m.m.m.m.m.u#u#k#k.n.n.j.m.n.n.m.m.m.r.m.s.m",
".f.d.f.f.M.Y.X.G...........................................m.m.m.m.l.w#u#u#u.t.j.n.n.n.m.m.s.s.s.r.m.s",
".d.d.g.p.E#d#d.6.a.......A#e.g...........................9#g.H.m.m.n.U#u#v#j.j.n.n.n.n.m.m.m.m.m.s.m.m",
".f.g.g.p.p#b#d.6.s...a.I.Z#e.H.........................a#H#E#D.Q.s.t#k#v#v.U.n.n.j.n.j.m.m.s.m.m.s.m.t",
".g.g.p.d.p.P.6.Z.R...t.Q.R.t.#...........................g#G#E#G.z.9#B#v#l.o.n.j.n.j.m.j.m.m.m.s.n.s.t",
".p.g.g.p.d.z.6.Z.Y.n.l.t.m.f.....m.c.............#.S.I.....a.R.A.f#D#E#u.3.j.n.m.j.j.l.j.l.j.m.m.s.t.t",
".m.q.p.g.g.p.4.Y.J.I.g.c.c.c.f.A.Y.Z.....a.m.....g#r#E.f.........7#C#H#E.C.j.j.j.m.j.h.i.j.l.n.m.n.n.s",
".n.m.p.d.p.f.q.P.A.u.z.f.c.c.f.B.B.t.....R#f.g...##f#E#q.a.....7#z#D#G#f.j.m.j.l.j.h.i.i.i.j.j.m.j.n.s",
".n.l.g.p.f.g.f.E.B.A.H.z.f.c.j.B.A.c.f.f.R.8.l.....f#E#H.f...8#E#C#F#z.s.m.m.j.j.l.i.i.i.j.j.j.j.m.n.n",
".m.j.g.f.g.f.f.f.s.H.N.N.G.g.g.t.l.d.c.f.R.9.l.......m.R.B#g#E#E#z#t.J.m.n.m.m.m.j.j.l.i.j.j.m.n.n.t.s",
".m.m.l.g.d.f.d.f.f.z.V.H.N.A.t.g.f.c.d.d.C.7.c.......a.8#E#E#E#E#i.z.n.s.s.n.n.m.n.j.j.j.j.m.j.j.n.t.n",
".m.l.j.l.g.l.d.f.g.k.N.W.W.A.C.R.B.n.m.m.z.J.a.g.t.Z#D#H#E#E#E#h.J.m.s.t.t.s.n.n.n.n.j.m.n.n.n.n.t.t.s",
".m.l.m.m.m.n.l.g.k.m.r.F#c.5.Y.9#f.9#q#z#E#F#K#L#L#H#H#I#H#E.8.n.m.n.t.t.t.t.t.t.t.s.n.t.t.u.t.t.z.t.s",
".l.j.m.m.n.m.m.m.s.r.s.r.G#d#w#C#z#D#H#L#K#L#L#M#L#H#K#I#m.J.m.n.m.t.t.t.t.t.z.t.z.A.A.H.H.N.H.N.H.z.t",
".j.m.m.m.m.m.m.s.s.x.x.x.x.y.G.Y#y#L#L#L#L#L#L#L#G#C.8.z.m.m.j.l.j.n.t.t.z.z.t.z.z.H.N.O.O.N.V.O.N.H.z",
".m.m.m.m.m.m.m.m.r.r.r.s.x.y.y.z.y.z.s.y.y.s.y.y.y.s.s.m.m.g.l.h.g.j.t.A.A.A.A.A.z.H.N.O.N.V.N.V.N.V.G",
".m.m.m.m.m.n.m.g.k.k.k.m.x.y.z.y.z.y.y.z.s.y.F.F.y.s.s.m.m.g.g.g.h.n.t.u.A.H.A.I.H.O.N.O.N.V.O.N.V.N.G",
".n.s.s.n.m.m.m.k.g.k.g.k.r.s.y.z.z.y.t.y.y.y.F.F.y.s.s.m.k.g.e.e.g.j.t.A.B.I.O.I.I.N.O.N.O.V.V.V.N.N.N",
".s.s.s.s.m.m.m.g.g.g.k.g.k.m.s.s.s.y.s.y.s.y.y.F.F.s.r.m.m.g.g.e.e.j.s.u.H.I.P.H.I.N.O.N.O.H.N.N.N.H.H",
".t.t.s.s.s.m.k.l.f.g.f.g.g.f.l.m.s.s.s.y.s.y.y.F.F.x.s.s.m.l.h.h.e.j.s.t.B.I.H.O.H.I.H.I.H.A.A.A.A.B.A",
".t.t.t.t.s.m.m.g.g.g.g.g.g.g.g.m.m.s.s.s.s.s.F.G.y.y.y.y.s.n.n.j.m.n.t.t.u.H.I.H.O.H.z.z.t.t.t.t.u.A.A",
".t.t.z.z.z.s.s.m.g.g.g.g.g.g.g.l.j.s.s.s.s.s.y.y.y.s.y.s.y.t.s.t.t.t.n.n.z.H.I.H.I.A.s.s.n.n.n.n.t.B.A",
".t.t.z.z.z.z.z.s.m.g.g.g.g.g.g.l.l.m.s.n.s.s.s.s.y.s.s.s.y.z.z.s.n.t.n.z.z.H.I.H.I.A.t.t.n.j.l.j.s.A.u",
".z.z.z.t.z.z.z.s.m.m.g.g.g.g.g.g.l.n.s.s.s.s.y.t.s.r.m.s.y.z.z.z.z.z.z.z.y.A.H.I.A.A.n.n.j.l.h.l.j.s.t",
".s.t.t.z.z.z.z.z.s.s.m.g.l.g.l.h.j.m.s.s.z.s.s.y.s.s.m.s.s.y.z.z.z.y.z.z.z.H.H.I.B.A.t.n.l.h.j.l.l.j.n",
".m.m.t.t.z.z.A.z.z.z.s.m.m.m.j.m.m.s.s.s.t.y.s.s.m.s.m.m.m.z.z.y.z.z.G.G.G.H.I.I.B.B.A.j.g.l.h.h.j.m.n",
".l.j.s.s.z.z.H.H.G.z.s.m.m.m.m.m.n.n.n.t.s.s.s.s.s.m.m.m.s.s.z.z.H.G.H.H.H.N.H.I.I.B.B.j.g.h.h.h.l.j.n",
".l.h.l.n.z.H.z.G.A.y.s.s.m.n.m.n.m.s.n.s.s.s.n.m.s.m.m.m.m.s.s.z.A.G.H.H.H.N.I.I.B.B.B.A.n.g.g.h.h.m.n",
".l.h.h.m.z.z.G.z.G.z.s.s.m.n.m.n.m.n.s.n.n.m.n.m.m.m.m.m.s.s.s.A.G.A.G.H.H.N.I.I.I.B.B.B.n.g.g.g.h.n.n",
".l.l.h.m.z.z.G.z.z.z.s.s.s.m.n.j.m.n.n.s.m.m.n.s.m.m.m.s.s.y.A.z.H.G.H.H.H.H.H.I.B.B.B.z.m.g.g.e.h.m.n",
".l.h.l.m.s.z.G.G.z.y.s.s.m.m.n.m.n.m.n.m.m.m.m.m.n.s.m.s.y.A.z.A.z.A.z.A.G.H.A.B.B.I.H.t.m.g.g.d.h.n.n"
};
