/* XPM */
static char *buttonProcess[] = {
/* width height num_colors chars_per_pixel */
"    54    47      103            2",
/* colors */
".. c #000000",
".# c #000008",
".a c #080008",
".b c #080010",
".c c #080021",
".d c #100018",
".e c #100021",
".f c #100029",
".g c #180018",
".h c #180021",
".i c #180029",
".j c #180031",
".k c #180039",
".l c #180042",
".m c #210029",
".n c #210031",
".o c #210039",
".p c #210042",
".q c #210052",
".r c #210831",
".s c #210839",
".t c #290031",
".u c #290039",
".v c #290042",
".w c #29004a",
".x c #290063",
".y c #290852",
".z c #310042",
".A c #310052",
".B c #31005a",
".C c #310063",
".D c #31006b",
".E c #310073",
".F c #310842",
".G c #310852",
".H c #39004a",
".I c #390052",
".J c #390063",
".K c #39007b",
".L c #39106b",
".M c #42005a",
".N c #420063",
".O c #42006b",
".P c #420073",
".Q c #420084",
".R c #42009c",
".S c #421073",
".T c #4a006b",
".U c #4a0073",
".V c #4a007b",
".W c #4a0084",
".X c #4a008c",
".Y c #4a0094",
".Z c #4a009c",
".0 c #4a0863",
".1 c #4a0873",
".2 c #4a1084",
".3 c #52006b",
".4 c #520073",
".5 c #52007b",
".6 c #520084",
".7 c #52008c",
".8 c #52009c",
".9 c #5200a5",
"#. c #5a006b",
"## c #5a0073",
"#a c #5a007b",
"#b c #5a008c",
"#c c #5a0094",
"#d c #5a009c",
"#e c #5a00a5",
"#f c #5a00ad",
"#g c #5a1084",
"#h c #630073",
"#i c #630084",
"#j c #63008c",
"#k c #630094",
"#l c #63009c",
"#m c #6300a5",
"#n c #6300ad",
"#o c #6300b5",
"#p c #6300bd",
"#q c #6b009c",
"#r c #6b00ad",
"#s c #6b00b5",
"#t c #6b00c6",
"#u c #7300a5",
"#v c #7300ad",
"#w c #7300bd",
"#x c #7300c6",
"#y c #7b00ad",
"#z c #7b00b5",
"#A c #7b00bd",
"#B c #7b00c6",
"#C c #7b00ce",
"#D c #8400b5",
"#E c #8400bd",
"#F c #8400c6",
"#G c #8400ce",
"#H c #8c00bd",
"#I c #8c00c6",
"#J c #8c00ce",
"#K c #9c00d6",
/* pixels */
".n.i.i.i.i.i.j.n.n.n.n.u.u.u.o.o.o.o.p.p.p.o.p.p.v.p.n.n.n.n.n.n.p.n.p.n.p.i.i.i.i.i.i.i.i.n.o.n.o.p.o.o.u.p",
".n.n.n.i.j.j.n.n.n.n.u.o.u.u.o.o.o.p.p.o.o.o.o.o.o.o.o.o.n.n.j.j.n.p.n.p.n.n.n.n.n.i.n.i.n.n.o.o.o.p.o.v.v.o",
".n.n.o.n.j.j.n.n.n.n.n.u.n.v.o.p.o.o.o.v.p.u.u.o.o.o.n.p.i.n.n.j.n.n.o.o.u.n.i.n.i.n.i.n.n.o.n.o.o.o.o.o.p.n",
".o.o.n.n.n.j.n.n.n.n.n.n.o.o.o.o.o.p.v.z.u.u.u.o.o.n.o.n.j.n.j.n.j.n.o.n.n.n.n.i.n.i.n.n.n.o.o.n.p.n.n.i.e.e",
".u.o.o.p.n.j.n.n.n.n.n.n.u.B.V.W.v.u.v.z.z.z.z.u.o.o.n.n.j.n.n.n.n.n.n.n.n.n.n.i.i.i.n.n.n.p.n.o.i.f.e.e.e.e",
".u.o.o.n.j.n.n.i.n.n.n.N#l#f#e#d.v.v.z#j.M.u.z.u.o.n.n.j.i.i.i.i.n.n.o.u.n.i.i.i.n.i.i.j.j.n.n.n.i.e.e.e.e.c",
".o.o.o.p.i.n.i.i.i.i.n.O#m#m#m#m.v.u.4#D#D.4.v.o.n.n.j.n.i.i.e.w.J.U#j.4.i.e.e.v.n.i.i.i.i.n.n.i.e.e.e.e.e.e",
".n.n.o.i.n.i.i.n.w.n.i.A#r#r#w#w#m#l#u#q#v#A#k.p.n.p.i.n.i.e.i.B.N.6.5.M.e.e.h.N.P.p.i.i.n.i.i.h.e.e.e.e.c.e",
".i.n.i.n.i.i.i.w.7.V.A.5#r#w#w#B#C#B#w#r#r#r.W.o.n.n.n.j.p.e.e.i.A.N.N.J.u.n.H.O.W.U.A.n.i.n.i.e.e.e.i.i.i.i",
".i.i.i.i.n.i.i.U.7#d#l#r#r#w#w#w#C#x#t#p#f.X.p.n.n.k.n.p.Q.A.i.p.w.B.I.M.I.M.N.V.W.W.W.n.n.i.i.h.h.i.p.n.n.n",
".n.n.n.n.i.n.J#c#c#l#d#r#v#w#m.W.7#w#p.Z.Z.R.p.p.N.n.p.W.X.U.C.C.q.A.A.I.A.J.N.U.Q.O.n.n.i.n.i.n.n.p.o.p.p.n",
".h.n.h.n.n.n.M#l#q#d#l#m#r.O.#.....i.9.Y.Z.9.7#l#m.v.A#m.Y.D.B.A.A.w.w.H.A.N.U.Q.6.O.n.n.n.i.n.n.n.v.o.p.p.p",
".i.i.n.h.n.n.n.z#b#q#m#m.A...........c.V.X.X.7#d#q.O.O#r#m.X.C.A.q.i.b.#.b.n.K.6.7#m.U.6#b.u.i.n.n.v.p.o.o.p",
".i.i.n.n.n.n.u.n#b#u#m.8.#.............p.V.V.V.7#e.6.v.V#v#s.W.C.w...........i.7#m#n#r#m#q.A.n.i.o.o.o.p.p.p",
".i.i.n.n.u.I.4#a#u#v#n.V...............i.V.W.V.W.V.V.o.o#b#v#b.4.d.............U#n#w#r#r#u.N.i.n.n.o.n.j.j.j",
".n.o.o.u.o#i#z#z#u#B#r.X...............n.W.V.W.H.i.u.O.5#u#z#k.T...............v#w#w#r#m#m.V.i.n.n.n.j.n.j.j",
".o.u.o.u.n.J#u#u#v#C#w#n.n.............O.V.V.W.n.i.N#v#v#D#z#j.T...............v#w#w#n.7.U.A.n.j.n.j.p.i.j.n",
".p.u.p.o.o.z#l#m#v#C#w#t#t.o.........O.V.Q.V.Q.V.n.A#s#r#w#D.5#..e.............V#s#m#m.w.n.n.j.n.p.n.j.n.j.j",
".o.p.u.o.u.u.U.6.O#m#C#C#B#D.J.n.v.V.7#d#c.8.8#m.X.w#s#s#v#z#a.4.0.a.........p#r#s#e.7.B.n.n.n.n.n.n.n.j.n.n",
".p.v.p.u.v.u.u.o.o.C#C#G#B#F#H#y#u#r#r#r#q#r#n#n.W.o#l#r#b#E#i#.###..n.d.h.V#r#m#c.V.V.7.V.o.n.n.p.n.p.n.n.j",
".v.p.v.p.u.u.u.o.v.W#x#C#B#F#D#D#w#v#r#m.V#e#n#e.z.p.H.w.v#a#i#.#a##.3.V.W.V.W.V.N.N.O.U.V.p.n.p.n.p.n.n.n.n",
".o.v.v.v.p.v.o.v.U#t#x#x#w#A#F#F#F#A#u.O.n.p.6.v.u.v.u.v.v.4#i#h#h.3.T.U.O.P.O.O.A.O.T.T.n.n.n.o.o.o.o.o.o.n",
".u.p.v.v.p.v.u.p.v.7#x#x#B.N.I#k#B#v#v.8.o.o.p.z.u.v.u.u.T#z#i.T.U.U.D.O.D.O.O.p.e.z.T.v.h.n.n.o.u.u.o.u.u.o",
".p.v.v.v.p.v.p.u.p.p.N#m.U.v.u.J#u#v#m.5.U#k#r#c.u.u.6.I.H#k#j.K.E.l.p.B.S.L.1.F.h.h.n.i.h.i.i.n.o.o.u.o.u.u",
".p.v.w.v.v.p.v.o.p.p.o.v.u.u.o.H.7.O.o.n.O#r#u#l.z.N#z#v.N.v.N.K.x.e.e.q.L.2#g.0.h.i.i.m.h.i.i.n.n.n.u.u.u.u",
".v.v.v.p.o.p.o.p.o.p.v.o.v.v.o.n.o.H.V.A.P.8.6.U.7#u#A#A#q.o.i.p.f.e.f.y.S.G.F.s.h.i.h.i.e.h.e.i.i.n.n.n.o.u",
".w.w.w.p.o.o.o.o.p.n.p.n.u.u.u.o.H#l#r#o.Z.W.N.A.N.7#q#q.J.n.i.i.e.f.i.r.r.r.i.r.h.i.h.h.i.e.h.e.h.i.n.n.n.n",
".w.w.v.o.o.n.j.n.i.i.n.n.n.o.v.z.5#K#J#x#o.K.x.A.A.J.V.5.T.U.I.i.i.i.i.i.i.i.i.i.h.i.i.e.e.e.e.e.e.e.i.n.i.n",
".p.v.p.o.p.j.j.j.i.i.j.n.n.u.v.z.H#i#G#C#f.Q.i.#.e.J.N.U.5.6.T.i.j.j.p.p.s.r.i.i.r.e.h.e.e.e.e.e.e.e.h.h.i.n",
".v.p.o.p.i.n.j.i.i.i.i.i.n.o.u.v.z.J#D#r#e.A.......e.N.O.O.U#b.v.p.n.p.p.o.r.i.i.i.m.e.e.d.d.d.d.d.e.e.e.e.e",
".p.p.o.n.p.i.j.j.i.i.i.i.n.o.u.H#u#F#z#l.7.n.......#.O.O.U.U.6.u.n.n.o.o.n.i.r.h.i.i.e.d.d.e.d.d.c.d.e.d.e.e",
".v.p.o.p.n.n.j.i.j.i.j.n.n.o.o.v#A#I#v.7.W.B.......n.O.T.U.n.i.i.o.o.o.o.p.i.i.e.e.i.g.e.d.d.e.d.d.e.e.e.d.e",
".v.p.o.o.n.n.j.j.i.j.i.n.p.o.u.u#q#v#l.W.V.P.A.i.H.U.O.O.4.A.n.n.n.n.o.o.n.n.i.i.e.e.e.h.g.g.e.g.d.e.e.e.e.e",
".p.p.o.o.o.p.i.n.j.j.n.p.n.o.v.u.N.B.v.O.P.O.P.O.U.U.4.5.5#i.N.n.n.o.o.o.n.p.n.i.n.e.h.i.i.h.g.h.e.e.e.h.e.e",
".v.p.o.o.o.p.n.j.n.n.p.o.p.u.p.u.o.n.n.O.U.U.U.U.U.U.U#a#q#b.u.n.n.n.n.n.p.n.p.p.o.n.i.n.n.m.n.h.h.h.i.i.n.n",
".w.v.v.o.o.n.p.j.p.n.o.u.o.v.v.u.u.p.V.V.K.U.B.T.U#i.N.o.T.H.n.n.n.n.p.n.n.p.n.p.o.p.n.u.u.u.u.u.m.u.n.o.o.o",
".H.w.v.o.o.p.o.p.p.p.v.v.v.v.v.u.v.v.v.O#b.A.i.A#b#k.5.u.n.n.n.n.n.n.n.p.n.p.p.n.p.n.o.u.u.u.u.u.u.z.v.v.v.z",
".H.H.w.p.p.w.w.H.A.w.H.p.u.v.v.v.v.o.v.o.H.j.i.w.N.M.H.o.n.n.n.n.n.j.n.p.n.p.n.o.o.p.i.n.u.u.t.u.z.z.z.z.H.v",
".H.H.w.w.w.w.A.w.w.w.A.v.v.v.v.u.v.u.o.v.n.i.i.i.n.n.n.o.o.n.n.n.n.p.n.o.o.o.o.o.o.n.i.n.h.n.n.t.z.z.v.H.v.v",
".I.H.A.A.A.B.A.A.A.w.w.w.v.u.v.u.o.o.u.o.o.n.o.n.o.o.o.o.o.n.o.n.p.i.o.v.o.v.o.o.o.n.i.i.h.h.n.m.u.z.H.v.z.v",
".I.I.A.B.B.B.B.A.A.w.w.H.v.v.o.u.o.o.o.n.o.o.o.o.v.v.o.o.o.n.p.n.n.o.v.v.v.v.p.o.n.n.i.h.i.h.h.i.n.u.v.v.v.v",
".A.A.B.J.J.J.A.A.w.A.w.w.v.o.u.o.n.n.n.n.n.n.n.n.p.o.o.o.n.p.n.o.o.v.v.v.v.v.o.o.n.i.i.e.h.i.h.i.h.n.o.o.u.v",
".A.B.B.J.J.J.A.A.A.w.w.w.o.n.o.n.i.i.e.e.i.i.n.n.p.o.o.o.p.n.o.u.o.u.v.v.v.v.u.o.n.n.i.e.h.i.h.i.e.i.n.o.v.u",
".B.A.B.J.J.J.A.A.A.A.w.v.o.i.i.i.e.e.e.e.e.e.e.i.i.n.p.n.p.n.o.u.u.v.v.v.v.u.v.v.o.n.n.i.i.e.i.e.i.i.n.p.n.p",
".A.A.B.J.J.I.B.A.A.A.w.v.p.e.i.e.e.e.e.e.e.c.e.c.e.j.n.o.n.o.o.u.u.u.v.u.v.v.v.u.v.p.o.i.i.h.i.i.e.i.n.n.p.o",
".w.A.B.A.A.A.A.A.A.A.w.v.p.i.i.i.e.e.e.e.c.d.c.e.c.e.n.p.n.o.o.o.o.u.u.v.u.v.v.v.u.v.u.o.n.i.e.i.i.i.i.j.o.o",
".p.w.w.A.J.I.I.A.A.A.A.w.p.n.i.i.i.e.e.d.c.e.c.e.e.e.n.n.p.n.o.o.o.o.u.u.v.z.v.v.v.z.v.u.o.n.n.i.i.i.i.o.o.p"
};
