/* XPM */
static char * custom_xpm[] = {
"56 63 18 1",
" 	c None",
".	c #000000",
"+	c #00008C",
"@	c #0000FF",
"#	c #008C00",
"$	c #009C9C",
"%	c #00FF00",
"&	c #00FFFF",
"*	c #848484",
"=	c #8C0000",
"-	c #8C8C8C",
";	c #9C009C",
">	c #9C9C00",
",	c #CECECE",
"'	c #FF0000",
")	c #FF00FF",
"!	c #FFFF00",
"~	c #FFFFFF",
"                                                        ",
"                                   ;;                   ",
"                   ---            ;;~;                  ",
"                  -~!!--          .);~;                 ",
"             ===  ->>~!!--        ,.);~;                ",
"            =)''==-!!>>~!!--       ,.);~;               ",
"            ===)''==!!!>>~!>.       ,.);~;              ",
"            =''==)''==!!!>>>.        ,.);,;             ",
"            =''''==)'=.!!!>>.         ,.,.,             ",
"            =''''''===.!!!>>.          ,.,              ",
"            ='''''''==.!!!>>.  ##,      ,               ",
"            =''''''###.!!!>>. ##~#,                     ",
"            ='''''#~%%##!!>>. .%#~#,                    ",
"            ='''''###~%%##>>.  .%#~#,                   ",
"            ='''''#%%##~%%.>.   .%#~#,                  ",
"            ='''''#%%%%###.>;;   .%#,#,                 ",
"            ='''''#%%%%%##.)));;  .,.,                  ",
"            ='''''#%%%%%##.;;)));;~.,                   ",
"            ='''''+%%%%%##.));;))).                     ",
"            ='''''+@@%%%##.))));;;.   $$$$$$            ",
"            ='''''+@@@@%##.$))));;.  $$$$$$-            ",
"            ='''''+@@@@@+$&&$$));;.  $&&&&&.            ",
"            ='''''+@@@@@$$$&&&.);;.  $.....             ",
"            ='''''+@@@@@$&&$$$.);;.                     ",
"            ='''''++@@@@$&&&$$.);;.                     ",
"            ..''''''++@@$&&&$$.);;.                     ",
"              ..''''''++$&&&$$.);;.                     ",
"                ..''''''$$&&$$.);;.                     ",
"                  ..''''''$$==.);;.                     ",
"                    ..'''''===.;..                      ",
"                      ..'''===..                        ",
"                        ..'=..                          ",
"                          ..                            ",
"                                                        ",
"                                                        ",
"                                                        ",
"                                                        ",
"                                                        ",
"                                                        ",
"            ~~~~                                        ",
"           ~    ~            ~                          ",
"           ~                 ~                          ",
"           ~      ~   ~  ~~  ~~  ~~~  ~~~ ~~            ",
"           ~      ~   ~ ~  ~ ~  ~   ~ ~  ~  ~           ",
"           ~      ~   ~  ~   ~  ~   ~ ~  ~  ~           ",
"           ~      ~   ~   ~  ~  ~   ~ ~  ~  ~           ",
"           ~    ~ ~  ~~ ~  ~ ~  ~   ~ ~  ~  ~           ",
"            ~~~~   ~~ ~  ~~   ~  ~~~  ~  ~  ~           ",
"                                                        ",
"                                                        ",
"                                                        ",
"                                                        ",
"             ~~~~~                                      ",
"             ~                            ~             ",
"             ~                            ~             ",
"             ~      ~~~  ~~ ~~~ ~~   ~~~  ~~            ",
"             ~~~~  ~   ~ ~  ~  ~  ~     ~ ~             ",
"             ~     ~   ~ ~  ~  ~  ~  ~~~~ ~             ",
"             ~     ~   ~ ~  ~  ~  ~ ~   ~ ~             ",
"             ~     ~   ~ ~  ~  ~  ~ ~   ~ ~             ",
"             ~      ~~~  ~  ~  ~  ~  ~~~~  ~            ",
"                                                        ",
"                                                        "};
