/* XPM */
static char * filters_xpm[] = {
"52 46 17 1",
" 	c None",
".	c #000000",
"+	c #003100",
"@	c #00639C",
"#	c #009C00",
"$	c #31639C",
"%	c #319CCE",
"&	c #630000",
"*	c #737373",
"-	c #9CCEFF",
";	c #B5B5B5",
">	c #CEFF9C",
",	c #CEFFFF",
"'	c #FF0000",
")	c #FF9C63",
"!	c #FFFFFF",
"                                                    ",
"                                                    ",
"               ..                                   ",
"               .,..                                 ",
"               .,,,..                               ",
"               .,-%,,..                             ",
"               .,%%-%,,..                           ",
"             ...,-%%%-%,,..                         ",
"             .).,%%-%%%-%,,..                       ",
"             .)'.-%%%-%%%-%,,..                     ",
"             .)''.%-%%%-%%%-%,,..                   ",
"             .)'''.%%-%%%-%%%-%,.                   ",
"            ..)''''.%%%-%%%-%%%@. ..                ",
"          ..))''''.%%-%%%-%%%-%@. .>.               ",
"         .))''''''.-%%%-%%%-%%%@. .>#.              ",
"         .)''''''.%%%-%%%-%%%-%@. .>##.             ",
"         .)'''&''.%-%%%-%%%-%%%@. .>###.            ",
"         .)&.&&'.-%%%-%%%-%%%-%@...>####.           ",
"          .. .&'.%%-..%-%%%-%%%@.>>####.            ",
"             .&.,-%%.>.%%-%%%-@@.######.            ",
"              ..,%%-.>#.%%%-%%@@.#####.             ",
"               .,%% .>##.-%%%-@@.##+##.             ",
"               .,@@%.>###.%-%%@@..++#.              ",
"               ..@@..>####.%%-%@. .+#.              ",
"               ;;..>>####. -%%%@. .+.               ",
"                .>>######.@  -%@.  ..               ",
"                .>######.@@%@  @.                   ",
"                .>###+##.@@@@%@@.;;                 ",
"                .>#.++#.;..@@@@@.**;;               ",
"                 .. .+#. ;;..@@@.****;              ",
"                    .+.    ;;..@.**;;               ",
"                     ..      ;;..;;                 ",
"                               ;;                   ",
"                                                    ",
"                                                    ",
"                                                    ",
"             !!!!! ! !                              ",
"             !       ! !                            ",
"             !       ! !                            ",
"             !     ! ! !!  !!!  !!  !!              ",
"             !!!!  ! ! !  !   ! !  !  !             ",
"             !     ! ! !  !!!!! !   !               ",
"             !     ! ! !  !     !    !              ",
"             !     ! ! !  !   ! !  !  !             ",
"             !     ! !  !  !!!  !   !!              ",
"                                                    ",
"                                                    ",
"                                                    "};
