/* XPM */
static char *general_xpm[] =
{
/* width height ncolors chars_per_pixel */
"48 48 18 1",
/* colors */
"A c #000000000000",
"B c #212121212121",
"C c #424200000000",
"D c #525252525252",
"E c #636331310000",
"F c #737373737373",
"G c #8C8C8C8C8C8C",
"H c #9C9C63630000",
"I c #ADADADADADAD",
"J c #BDBDBDBDBDBD",
"K c #CECE9C9C6363",
"L c #CECECECE0000",
"M c #DEDEDEDEDEDE",
"N c #EFEFEFEFEFEF",
"O c #FFFF63630000",
"P c #FFFFCECE0000",
"Q c #FFFFFFFF0000",
"  c None",
/* pixels */
"             AA                                 ",
"            AOOA                                ",
"            AHOA                                ",
"             AMFA                               ",
"             AIPA                               ",
"              APQA           AA                 ",
"              ALPA          A  AA               ",
"               APQA    AAAAAA I  AA             ",
"               ALPA  AAKKHHA IIDI  AA           ",
"                APQAAKKHHHNADDIIIDI  A          ",
"                ALPAKHHHNNNNBBDDIIIDAA          ",
"               AAAPQAHNNNNIDNNBBDDCCAA          ",
"             AAKKALPANNNDDNNIDNNCCEEHAA         ",
"           AAKKHHAAPQAIDNNIDNNDNNNNIHHEA        ",
"         AAKKHHHNNALAANNDDNNNNNNNIHHHHEA        ",
"        AKKHHHNNNNNAAAIINNDNNNNIHHHHHEEA        ",
"        AKHHHHHHNNNNAANNINNNNIHHHHHEECCA        ",
"        AKKHHHHHHHNNNANNNNNIHHHHHEECCAAG        ",
"        AHHKKHHHHHHHNNNNNIHHHHHEECCAAGGJ        ",
"        GAAHHKKHHHHHHHNIHHHHHEECCAAGGJJ         ",
"        JGGAAHHKKHHHHHHHHHHEECCAAGGJJ           ",
"         JJGGAAHHKKHHHHHHEECCAAGGJJ             ",
"           JJGGAAHHKKHHEECCAAGGJJ               ",
"             JJGGAAHHEECCAAGGJJ                 ",
"               JJGGAAAAAAGGJJ                   ",
"                 JJGGGGGGJJ                     ",
"                   JJJJJJ                       ",
"                                                ",
"                                                ",
"                                                ",
"                                                ",
"                                                ",
"                                                ",
"                                                ",
"                                                ",
"                                                ",
"         AAAA                       A           ",
"         A   A                      A           ",
"         A   A  AA  AAA   AA  A AA AAA          ",
"         AAAA  A  A A  A A  A AA    A           ",
"         A A   AAAA A  A A  A A     A           ",
"         A  A  A    A  A A  A A     A           ",
"         A   A  AA  AAA   AA  A      A          ",
"                    A                           ",
"                    A                           ",
"                                                ",
"                                                ",
"                                                ",
};
