/* XPM */
static char * report_xpm[] = {
"52 52 20 1",
" 	c None",
".	c #000000",
"+	c #212121",
"@	c #420000",
"#	c #525252",
"$	c #633100",
"%	c #737373",
"&	c #848484",
"*	c #8C8C8C",
"=	c #9C6300",
"-	c #ADADAD",
";	c #BDBDBD",
">	c #CE9C63",
",	c #CECE00",
"'	c #DEDEDE",
")	c #EFEFEF",
"!	c #FF6300",
"~	c #FFCE00",
"{	c #FFFF00",
"]	c #FFFFFF",
"                                                    ",
"                                                    ",
"              ..                                    ",
"             .!!.                                   ",
"             .=!.                                   ",
"              .'%.                                  ",
"              .-~.                                  ",
"               .~{.           ..                    ",
"               .,~.          .]]..                  ",
"                .~{.    ......]-]]..                ",
"                .,~.  ..>>==.]--#-]]..              ",
"                 .~{..>>===).##---#-]].             ",
"                 .,~.>===))))++##---#..             ",
"                ...~{.=))))-#))++##@@..             ",
"              ..>>.,~.)))##))-#))@@$$=..            ",
"            ..>>==..~{.-#))-#))#))))-==$.           ",
"          ..>>===)).,..))##)))))))-====$.           ",
"         .>>===)))))...--))#))))-=====$$.           ",
"         .>======))))..))-))))-=====$$@@.           ",
"         .>>=======))).)))))-=====$$@@..*           ",
"         .==>>=======)))))-=====$$@@..**;           ",
"         *..==>>=======)-=====$$@@..**;;            ",
"         ;**..==>>==========$$@@..**;;              ",
"          ;;**..==>>======$$@@..**;;                ",
"            ;;**..==>>==$$@@..**;;                  ",
"              ;;**..==$$@@..**;;                    ",
"                ;;**......**;;                      ",
"                  ;;******;;                        ",
"                    ;;;;;;                          ",
"                                                    ",
"                                                    ",
"                                                    ",
"                                                    ",
"                                                    ",
"                                                    ",
"                                                    ",
"                                                    ",
"                                                    ",
"                                                    ",
"                                                    ",
"          ]]]]]                                     ",
"          ]    ]                       ]            ",
"          ]    ]                       ]            ",
"          ]    ]   ]]]  ]]]]   ]]]  ]] ]]           ",
"          ]]]]]   ]   ] ]   ] ]   ] ]  ]            ",
"          ]    ]  ]]]]] ]   ] ]   ] ]  ]            ",
"          ]    ]  ]     ]   ] ]   ] ]  ]            ",
"          ]    ]  ]   ] ]   ] ]   ] ]  ]            ",
"          ]    ]   ]]]  ]]]]   ]]]  ]   ]           ",
"                        ]                           ",
"                        ]                           ",
"                                                    "};
