/* XPM */
static char * router_xpm[] = {
"54 58 10 1",
" 	c None",
".	c #000000",
"+	c #008C00",
"@	c #00FF00",
"#	c #848484",
"$	c #8C8C8C",
"%	c #9C9C00",
"&	c #CECECE",
"*	c #FFFF00",
"=	c #FFFFFF",
"                                                      ",
"                                                      ",
"                $$$$$$$$$$$$$$$$$$$$$$$$$$            ",
"               $&&&&&&&&&&&&&&&&&&&&&&&&&$.           ",
"              $&&&&&&&&&&&&&&&&&&&&&&&&&$$.           ",
"             $=========================$$$.           ",
"             $=&&&&&&&&&&&&&&&&&&&@@@&&$$$.           ",
"             $=&&&&&&&&&&&&&&&&&&&+++&&$$$.           ",
"             $=&&&&&&&&&&&&&&&&&&&&&&&&$$$.           ",
"             $=&$$$$$$$$$$$$$$$$$$$$$&&$$$.           ",
"             $=&=====================&&$$$.           ",
"             $=&$$$$$$$$$$$$$$$$$$$$$&&$$$.           ",
"             $=&=====================&&$$$.           ",
"             $=&&&&&&&&&&&&&&&&&&&&&&&&$$.            ",
"             $$$$$$$$$$$$$$$$$$$$$$$$$$$.             ",
"              ..........................              ",
"                          .$.                         ",
"                          $=.                         ",
"                          $=.                         ",
"            $ $$$$$$$$$$%%%%%%.$$$$$$$$$$$ $          ",
"                        %*=*%%.                       ",
"            . ..........%*=*%%............ .          ",
"                        .......                       ",
"                                                      ",
"                                                      ",
"                                                      ",
"                                                      ",
"                                                      ",
"                                                      ",
"                                                      ",
"                                                      ",
"                                                      ",
"                                                      ",
"                                                      ",
"         =====                                 =      ",
"         =    =              =                 =      ",
"         =    =              =                 =      ",
"         =    =   ===  =   = ==  ===  ==      =       ",
"         =====   =   = =   = =  =   = =       =       ",
"         =    =  =   = =   = =  ===== =      =        ",
"         =    =  =   = =   = =  =     =      =        ",
"         =    =  =   = =  == =  =   = =     =         ",
"         =    =   ===   == =  =  ===  =     =         ",
"                                                      ",
"                                                      ",
"                                                      ",
"                                                      ",
"           ===== =                        = =         ",
"           =                              = =         ",
"           =                              = =         ",
"           =     = ==  ===  =  =  =  ===  = =         ",
"           ====  = =  =   = =  =  =     = = =         ",
"           =     = =  ===== = = = =  ==== = =         ",
"           =     = =  =     = = = = =   = = =         ",
"           =     = =  =   =  =   =  =   = = =         ",
"           =     = =   ===   =   =   ==== = =         ",
"                                                      ",
"                                                      "};
