/* XPM */
static char * stats_xpm[] = {
"52 53 33 1",
" 	c None",
".	c #000000",
"+	c #000010",
"@	c #000021",
"#	c #000073",
"$	c #0000BD",
"%	c #0000EF",
"&	c #001000",
"*	c #002100",
"=	c #0031FF",
"-	c #004200",
";	c #005200",
">	c #0063FF",
",	c #007300",
"'	c #008C00",
")	c #00AD00",
"!	c #00BD00",
"~	c #100000",
"{	c #101010",
"]	c #424242",
"^	c #633100",
"/	c #636363",
"_	c #8C8C8C",
":	c #9C6300",
"<	c #9C9C9C",
"[	c #BDBDBD",
"}	c #CE9C00",
"|	c #CECECE",
"1	c #EFEFEF",
"2	c #FFCE00",
"3	c #FFFF31",
"4	c #FFFFFF",
"                                                    ",
"                                                    ",
"                                                    ",
"                ..                                  ",
"              ..,,..                                ",
"            .{,,,,,,.                               ",
"            {),,,,,,.                               ",
"            .!)),,--.           ..                  ",
"            ~'))'---.         ..$$..                ",
"            &)'''---.       ..$$$$$$.               ",
"            ~)))'---.   {.  .=$$$$$$.               ",
"            &)))'---. .{22.{.===$$##.               ",
"            ~'))'---..222222.>==%###.               ",
"            {)'''---.3222222.=>>%###.               ",
"            +)))'---.33322::.===%###.               ",
"            ~!))'---.333}:::.===%###.               ",
"            &'))'---.}33}:::.===%###.               ",
"            ~)'''---.3}}}:::.>==%###.               ",
"            @)))'---.333::::.=>>%###.               ",
"          ..~;))'--*.333}:::.===%###.               ",
"         .__<_--'**].}33}:::.===%###.               ",
"         .11____*]]].3}}}:::.===%###.               ",
"         .||11______.333::::.>==%###.               ",
"         _..||11____.}33}::^.=>>%###.               ",
"         [__..||11____}}}^^].===%###.               ",
"          [[__..||11____^]]].===%###.               ",
"            [[__..||11______.===%###..              ",
"              [[__..||11____$$==%###.]..            ",
"                [[__..||11____$$%##]]]]_.           ",
"                  [[__..||11____.]]]__  .           ",
"                    [[__..||11__<___  ]].           ",
"                      [[__..||11__  ]].._           ",
"                        [[__..||| ]]..__[           ",
"                          [[__.._]..__[[4           ",
"                            [[__..__[[444           ",
"                                                    ",
"                                                    ",
"                                                    ",
"                                                    ",
"                                                    ",
"                                                    ",
"      444               4         4                 ",
"     4   4  4        4         4                    ",
"     4      4        4         4                    ",
"     4      44  444  44 4  44  44 4  444   44       ",
"      444   4      4 4  4 4  4 4  4 4   4 4  4      ",
"         4  4   4444 4  4  4   4  4 4      4        ",
"         4  4  4   4 4  4   4  4  4 4       4       ",
"     4   4  4  4   4 4  4 4  4 4  4 4   4 4  4      ",
"      444    4  4444  4 4  44   4 4  444   44       ",
"                                                    ",
"                                                    ",
"                                                    ",
"                                                    "};

