/* XPM */
static char * vdomains_xpm[] = {
"53 55 22 1",
" 	c None",
".	c #000000",
"+	c #001000",
"@	c #002100",
"#	c #004200",
"$	c #005200",
"%	c #00639C",
"&	c #007300",
"*	c #008C00",
"=	c #00AD00",
"-	c #00BD00",
";	c #101010",
">	c #319C63",
",	c #319C9C",
"'	c #525252",
")	c #737373",
"!	c #848484",
"~	c #8C8C8C",
"{	c #ADADAD",
"]	c #BDBDBD",
"^	c #EFEFEF",
"/	c #FFFFFF",
"                                                     ",
"                                                     ",
"                                                     ",
"                                                     ",
"                                                     ",
"                                    ....             ",
"                                  ..{{{{..           ",
"                                  .]]{{{{).          ",
"                                  .]%]]{)'.          ",
"                              .....]%%%]''.          ",
"                             .----.]%,,]''.          ",
"                   ..        .-....]],,]''.          ",
"                 ..]]..      .-.   ..]]]'.           ",
"               ..>]]]]]..    .-.     ....            ",
"             ..>>]]]]]])).   .-.                     ",
"           ..]]]]]]]]))]]..  .-.                     ",
"           .^))]]]]))]]]''.  .-.    ....             ",
"           .^]]))))]]]''''.  .-.  ..{{{{..           ",
"           .^;;])]]]''''''.  .=.  .]]{{{{).          ",
"           .^]];)]''''''''.  .*.  .]%]]{)'.          ",
"           .^~]])]''''''''....&....]%%%]''.          ",
"           .^]~~)]''''''''.+@#$&*=.]%,,]''.          ",
"           .^]]])]''''''''....&....]],,]''.          ",
"           .^~]])]''''''''.  .*.   ..]]]'.           ",
"           .^]~~)]''''''''.  .=.     ....            ",
"           .^]]])]''''''''.  .-.                     ",
"           .^]]])]''''''''.  .-.                     ",
"           .^]]])]'''''''..~ .-.                     ",
"           .^]]])*'''''..~~  .-.    ....             ",
"           ~..]])]'''..~~    .-.  ..{{{{..           ",
"            ~~..)]'..~~      .-.  .]]{{{{).          ",
"              ~~...~~        .-.  .]%]]{)'.          ",
"                ~~~          .-....]%%%]''.          ",
"                             .----.]%,,]''.          ",
"                              .....]],,]''.          ",
"                                   ..]]]'.           ",
"                                     ....            ",
"                                                     ",
"                                                     ",
"                                                     ",
"                                                     ",
"                                                     ",
"                                                     ",
"             /     / /                   /           ",
"             /     /      /              /           ",
"              /   /       /              /           ",
"              /   /  / // // /   /  ///  /           ",
"              /   /  / /  /  /   /     / /           ",
"               / /   / /  /  /   /  //// /           ",
"               / /   / /  /  /   / /   / /           ",
"                /    / /  /  /  // /   / /           ",
"                /    / /   /  // /  //// /           ",
"                                                     ",
"                                                     ",
"                                                     "};
